<?xml version="1.0" encoding="us-ascii" standalone="no"?><svg xmlns="http://www.w3.org/2000/svg" xmlns:xlink="http://www.w3.org/1999/xlink" contentStyleType="text/css" height="623.16px" preserveAspectRatio="none" style="width:1500px;height:623px;background:#FFFFFF;" version="1.1" viewBox="0 0 1500 623" width="1500.4907px" zoomAndPan="magnify"><defs/><g><!--class Incident--><g id="elem_Incident"><rect codeLine="29" fill="#F1F1F1" height="266.9744" id="Incident" rx="1.2267" ry="1.2267" style="stroke:#181818;stroke-width:0.2453385672227674;" width="251.2267" x="232.581" y="170.265"/><ellipse cx="347.1541" cy="177.6251" fill="#ADD1B2" rx="4.9068" ry="4.9068" style="stroke:#181818;stroke-width:0.4906771344455348;"/><path d="M347.8824,176.2528 Q347.9361,176.1761 347.9974,176.1378 Q348.0664,176.0994 348.1431,176.0994 Q348.2734,176.0994 348.3501,176.1914 Q348.4344,176.2834 348.4344,176.4904 L348.4344,176.9964 Q348.4344,177.2034 348.3501,177.2954 Q348.2734,177.3875 348.1431,177.3875 Q348.0204,177.3875 347.9514,177.3184 Q347.8824,177.2571 347.8441,177.0731 Q347.8288,176.9504 347.7674,176.8891 Q347.6447,176.7588 347.4301,176.6821 Q347.2231,176.6054 347.0084,176.6054 Q346.7477,176.6054 346.5254,176.7204 Q346.3031,176.8354 346.1344,177.0961 Q345.9657,177.3491 345.9657,177.7095 L345.9657,178.0928 Q345.9657,178.5145 346.2724,178.7981 Q346.5867,179.0818 347.1311,179.0818 Q347.4607,179.0818 347.6908,178.9975 Q347.8211,178.9438 347.9668,178.7905 Q348.0588,178.6985 348.1124,178.6755 Q348.1661,178.6448 348.2274,178.6448 Q348.3501,178.6448 348.4344,178.7368 Q348.5264,178.8211 348.5264,178.9438 Q348.5264,179.0665 348.4038,179.2045 Q348.2274,179.4038 347.9514,179.5188 Q347.5834,179.6722 347.1387,179.6722 Q346.6097,179.6722 346.1957,179.4575 Q345.8507,179.2888 345.613,178.9132 Q345.3754,178.5375 345.3754,178.1005 L345.3754,177.7018 Q345.3754,177.2418 345.59,176.8431 Q345.8047,176.4444 346.1804,176.2298 Q346.5637,176.0151 346.9854,176.0151 Q347.2461,176.0151 347.4684,176.0764 Q347.6908,176.1301 347.8824,176.2528 Z " fill="#000000"/><text fill="#000000" font-family="sans-serif" font-size="5.3974" lengthAdjust="spacing" textLength="18.1551" x="356.4769" y="179.8336">Incident</text><line style="stroke:#181818;stroke-width:0.2453385672227674;" x1="233.0716" x2="483.317" y1="184.9853" y2="184.9853"/><text fill="#000000" font-family="sans-serif" font-size="5.3974" lengthAdjust="spacing" text-decoration="underline" textLength="69.1855" x="235.525" y="192.551">+MAX_RESPONDERS : int = 8</text><text fill="#000000" font-family="sans-serif" font-size="5.3974" lengthAdjust="spacing" text-decoration="underline" textLength="122.6693" x="235.525" y="199.34">+DEFAULT_SEVERITY : Severity = Severity.MEDIUM</text><text fill="#000000" font-family="sans-serif" font-size="5.3974" lengthAdjust="spacing" textLength="21.5898" x="235.525" y="206.129">-id : UUID</text><text fill="#000000" font-family="sans-serif" font-size="5.3974" lengthAdjust="spacing" textLength="63.788" x="235.525" y="212.9179">-hazardType : HazardType</text><text fill="#000000" font-family="sans-serif" font-size="5.3974" lengthAdjust="spacing" textLength="45.1423" x="235.525" y="219.7069">-severity : Severity</text><text fill="#000000" font-family="sans-serif" font-size="5.3974" lengthAdjust="spacing" textLength="70.6575" x="235.525" y="226.4959">-gpsLocation : GpsCoordinate</text><text fill="#000000" font-family="sans-serif" font-size="5.3974" lengthAdjust="spacing" textLength="46.1237" x="235.525" y="233.2849">-description : String</text><text fill="#000000" font-family="sans-serif" font-size="5.3974" lengthAdjust="spacing" textLength="38.7635" x="235.525" y="240.0739">-victimCount : int</text><text fill="#000000" font-family="sans-serif" font-size="5.3974" lengthAdjust="spacing" textLength="66.2414" x="235.525" y="246.8628">-reportedAt : LocalDateTime</text><text fill="#000000" font-family="sans-serif" font-size="5.3974" lengthAdjust="spacing" textLength="54.4652" x="235.525" y="253.6518">-status : IncidentStatus</text><text fill="#000000" font-family="sans-serif" font-size="5.3974" lengthAdjust="spacing" textLength="74.0922" x="235.525" y="260.4408">-responders : List&lt;Responder&gt;</text><text fill="#000000" font-family="sans-serif" font-size="5.3974" lengthAdjust="spacing" textLength="93.2287" x="235.525" y="267.2298">-recommendedTemplate : AlertTemplate</text><text fill="#000000" font-family="sans-serif" font-size="5.3974" lengthAdjust="spacing" textLength="47.5957" x="235.525" y="274.0187">-auditLog : AuditLog</text><line style="stroke:#181818;stroke-width:0.4906771344455348;" x1="233.0716" x2="483.317" y1="277.1674" y2="277.1674"/><text fill="#000000" font-family="sans-serif" font-size="5.3974" lengthAdjust="spacing" textLength="245.3386" x="235.525" y="284.7331">+Incident(hazardType : HazardType, gpsLocation : GpsCoordinate, description : String, victimCount : int)</text><text fill="#000000" font-family="sans-serif" font-size="5.3974" lengthAdjust="spacing" textLength="63.2974" x="235.525" y="291.5221">+triage(severity : Severity)</text><text fill="#000000" font-family="sans-serif" font-size="5.3974" lengthAdjust="spacing" textLength="103.5329" x="235.525" y="298.3111">+assignResponder(responder : Responder)</text><text fill="#000000" font-family="sans-serif" font-size="5.3974" lengthAdjust="spacing" textLength="24.5339" x="235.525" y="305.1001">+resolve()</text><text fill="#000000" font-family="sans-serif" font-size="5.3974" lengthAdjust="spacing" textLength="33.8567" x="235.525" y="311.889">+getId() : UUID</text><text fill="#000000" font-family="sans-serif" font-size="5.3974" lengthAdjust="spacing" textLength="67.2228" x="235.525" y="318.678">+getStatus() : IncidentStatus</text><text fill="#000000" font-family="sans-serif" font-size="5.3974" lengthAdjust="spacing" textLength="57.8999" x="235.525" y="325.467">+getSeverity() : Severity</text><text fill="#000000" font-family="sans-serif" font-size="5.3974" lengthAdjust="spacing" textLength="76.5456" x="235.525" y="332.256">+getHazardType() : HazardType</text><text fill="#000000" font-family="sans-serif" font-size="5.3974" lengthAdjust="spacing" textLength="83.9058" x="235.525" y="339.045">+getGpsLocation() : GpsCoordinate</text><text fill="#000000" font-family="sans-serif" font-size="5.3974" lengthAdjust="spacing" textLength="58.8813" x="235.525" y="345.8339">+getDescription() : String</text><text fill="#000000" font-family="sans-serif" font-size="5.3974" lengthAdjust="spacing" textLength="52.0118" x="235.525" y="352.6229">+getVictimCount() : int</text><text fill="#000000" font-family="sans-serif" font-size="5.3974" lengthAdjust="spacing" textLength="79.9804" x="235.525" y="359.4119">+getReportedAt() : LocalDateTime</text><text fill="#000000" font-family="sans-serif" font-size="5.3974" lengthAdjust="spacing" textLength="87.8312" x="235.525" y="366.2009">+getResponders() : List&lt;Responder&gt;</text><text fill="#000000" font-family="sans-serif" font-size="5.3974" lengthAdjust="spacing" textLength="60.844" x="235.525" y="372.9899">+getAuditLog() : AuditLog</text><text fill="#000000" font-family="sans-serif" font-size="5.3974" lengthAdjust="spacing" textLength="106.9676" x="235.525" y="379.7788">+getRecommendedTemplate() : AlertTemplate</text><text fill="#000000" font-family="sans-serif" font-size="5.3974" lengthAdjust="spacing" textLength="108.4396" x="235.525" y="386.5678">+setRecommendedTemplate(t : AlertTemplate)</text><text fill="#000000" font-family="sans-serif" font-size="5.3974" lengthAdjust="spacing" textLength="60.844" x="235.525" y="393.3568">+setSeverity(s : Severity)</text><text fill="#000000" font-family="sans-serif" font-size="5.3974" lengthAdjust="spacing" textLength="79.4897" x="235.525" y="400.1458">+setHazardType(h : HazardType)</text><text fill="#000000" font-family="sans-serif" font-size="5.3974" lengthAdjust="spacing" textLength="86.8499" x="235.525" y="406.9347">+setGpsLocation(g : GpsCoordinate)</text><text fill="#000000" font-family="sans-serif" font-size="5.3974" lengthAdjust="spacing" textLength="61.8253" x="235.525" y="413.7237">+setDescription(d : String)</text><text fill="#000000" font-family="sans-serif" font-size="5.3974" lengthAdjust="spacing" textLength="54.9558" x="235.525" y="420.5127">+setVictimCount(n : int)</text><text fill="#000000" font-family="sans-serif" font-size="5.3974" lengthAdjust="spacing" textLength="70.1668" x="235.525" y="427.3017">+setStatus(s : IncidentStatus)</text><text fill="#000000" font-family="sans-serif" font-size="5.3974" lengthAdjust="spacing" textLength="43.1796" x="235.525" y="434.0907">+toString() : String</text></g><!--class IncidentQueue--><g id="elem_IncidentQueue"><rect codeLine="69" fill="#F1F1F1" height="104.0389" id="IncidentQueue" rx="1.2267" ry="1.2267" style="stroke:#181818;stroke-width:0.2453385672227674;" width="117.7625" x="299.3131" y="15.7017"/><ellipse cx="339.3032" cy="23.0618" fill="#ADD1B2" rx="4.9068" ry="4.9068" style="stroke:#181818;stroke-width:0.4906771344455348;"/><path d="M340.0316,21.6895 Q340.0853,21.6128 340.1466,21.5745 Q340.2156,21.5361 340.2923,21.5361 Q340.4226,21.5361 340.4993,21.6281 Q340.5836,21.7201 340.5836,21.9271 L340.5836,22.4331 Q340.5836,22.6401 340.4993,22.7322 Q340.4226,22.8242 340.2923,22.8242 Q340.1696,22.8242 340.1006,22.7552 Q340.0316,22.6938 339.9933,22.5098 Q339.9779,22.3871 339.9166,22.3258 Q339.7939,22.1955 339.5792,22.1188 Q339.3722,22.0421 339.1576,22.0421 Q338.8969,22.0421 338.6746,22.1571 Q338.4522,22.2721 338.2836,22.5328 Q338.1149,22.7858 338.1149,23.1462 L338.1149,23.5295 Q338.1149,23.9512 338.4216,24.2349 Q338.7359,24.5185 339.2802,24.5185 Q339.6099,24.5185 339.8399,24.4342 Q339.9703,24.3805 340.1159,24.2272 Q340.2079,24.1352 340.2616,24.1122 Q340.3153,24.0815 340.3766,24.0815 Q340.4993,24.0815 340.5836,24.1735 Q340.6756,24.2579 340.6756,24.3805 Q340.6756,24.5032 340.5529,24.6412 Q340.3766,24.8405 340.1006,24.9555 Q339.7326,25.1089 339.2879,25.1089 Q338.7589,25.1089 338.3449,24.8942 Q337.9999,24.7255 337.7622,24.3499 Q337.5245,23.9742 337.5245,23.5372 L337.5245,23.1385 Q337.5245,22.6785 337.7392,22.2798 Q337.9539,21.8811 338.3296,21.6665 Q338.7129,21.4518 339.1346,21.4518 Q339.3952,21.4518 339.6176,21.5131 Q339.8399,21.5668 340.0316,21.6895 Z " fill="#000000"/><text fill="#000000" font-family="sans-serif" font-size="5.3974" lengthAdjust="spacing" textLength="33.8567" x="348.6261" y="25.2704">IncidentQueue</text><line style="stroke:#181818;stroke-width:0.2453385672227674;" x1="299.8037" x2="416.5849" y1="30.422" y2="30.422"/><text fill="#000000" font-family="sans-serif" font-size="5.3974" lengthAdjust="spacing" text-decoration="underline" textLength="111.8744" x="302.2571" y="37.9877">-MOST_URGENT_FIRST : Comparator&lt;Incident&gt;</text><text fill="#000000" font-family="sans-serif" font-size="5.3974" lengthAdjust="spacing" textLength="77.0363" x="302.2571" y="44.7767">-queue : PriorityQueue&lt;Incident&gt;</text><line style="stroke:#181818;stroke-width:0.2453385672227674;" x1="299.8037" x2="416.5849" y1="47.9254" y2="47.9254"/><text fill="#000000" font-family="sans-serif" font-size="5.3974" lengthAdjust="spacing" textLength="40.7262" x="302.2571" y="55.4911">+IncidentQueue()</text><text fill="#000000" font-family="sans-serif" font-size="5.3974" lengthAdjust="spacing" textLength="68.2041" x="302.2571" y="62.2801">+enqueue(incident : Incident)</text><text fill="#000000" font-family="sans-serif" font-size="5.3974" lengthAdjust="spacing" textLength="50.0491" x="302.2571" y="69.069">+dequeue() : Incident</text><text fill="#000000" font-family="sans-serif" font-size="5.3974" lengthAdjust="spacing" textLength="40.7262" x="302.2571" y="75.858">+peek() : Incident</text><text fill="#000000" font-family="sans-serif" font-size="5.3974" lengthAdjust="spacing" textLength="26.4966" x="302.2571" y="82.647">+size() : int</text><text fill="#000000" font-family="sans-serif" font-size="5.3974" lengthAdjust="spacing" textLength="48.0864" x="302.2571" y="89.436">+isEmpty() : boolean</text><text fill="#000000" font-family="sans-serif" font-size="5.3974" lengthAdjust="spacing" textLength="73.6016" x="302.2571" y="96.2249">+asSortedList() : List&lt;Incident&gt;</text><text fill="#000000" font-family="sans-serif" font-size="5.3974" lengthAdjust="spacing" textLength="88.3219" x="302.2571" y="103.0139">+remove(incident : Incident) : boolean</text><text fill="#000000" font-family="sans-serif" font-size="5.3974" lengthAdjust="spacing" textLength="90.7753" x="302.2571" y="109.8029">+contains(incident : Incident) : boolean</text><text fill="#000000" font-family="sans-serif" font-size="5.3974" lengthAdjust="spacing" textLength="43.1796" x="302.2571" y="116.5919">+toString() : String</text></g><!--class Responder--><g id="elem_Responder"><rect codeLine="84" fill="#F1F1F1" height="97.2499" id="Responder" rx="1.2267" ry="1.2267" style="stroke:#181818;stroke-width:0.2453385672227674;" width="79.4897" x="3.4347" y="513.9843"/><ellipse cx="28.2139" cy="521.3445" fill="#ADD1B2" rx="4.9068" ry="4.9068" style="stroke:#181818;stroke-width:0.4906771344455348;"/><path d="M28.9423,519.9721 Q28.996,519.8954 29.0573,519.8571 Q29.1263,519.8188 29.203,519.8188 Q29.3333,519.8188 29.41,519.9108 Q29.4943,520.0028 29.4943,520.2098 L29.4943,520.7158 Q29.4943,520.9228 29.41,521.0148 Q29.3333,521.1068 29.203,521.1068 Q29.0803,521.1068 29.0113,521.0378 Q28.9423,520.9764 28.9039,520.7924 Q28.8886,520.6698 28.8273,520.6084 Q28.7046,520.4781 28.4899,520.4014 Q28.2829,520.3248 28.0683,520.3248 Q27.8076,520.3248 27.5853,520.4398 Q27.3629,520.5548 27.1942,520.8154 Q27.0256,521.0684 27.0256,521.4288 L27.0256,521.8121 Q27.0256,522.2338 27.3322,522.5175 Q27.6466,522.8012 28.1909,522.8012 Q28.5206,522.8012 28.7506,522.7168 Q28.8809,522.6632 29.0266,522.5098 Q29.1186,522.4178 29.1723,522.3948 Q29.226,522.3641 29.2873,522.3641 Q29.41,522.3641 29.4943,522.4561 Q29.5863,522.5405 29.5863,522.6632 Q29.5863,522.7858 29.4636,522.9238 Q29.2873,523.1232 29.0113,523.2382 Q28.6433,523.3915 28.1986,523.3915 Q27.6696,523.3915 27.2556,523.1768 Q26.9106,523.0082 26.6729,522.6325 Q26.4352,522.2568 26.4352,521.8198 L26.4352,521.4211 Q26.4352,520.9611 26.6499,520.5624 Q26.8646,520.1638 27.2402,519.9491 Q27.6236,519.7344 28.0453,519.7344 Q28.3059,519.7344 28.5283,519.7958 Q28.7506,519.8494 28.9423,519.9721 Z " fill="#000000"/><text fill="#000000" font-family="sans-serif" font-size="5.3974" lengthAdjust="spacing" textLength="26.0059" x="37.5368" y="523.553">Responder</text><line style="stroke:#181818;stroke-width:0.2453385672227674;" x1="3.9254" x2="82.4338" y1="528.7046" y2="528.7046"/><text fill="#000000" font-family="sans-serif" font-size="5.3974" lengthAdjust="spacing" textLength="21.5898" x="6.3788" y="536.2703">-id : UUID</text><text fill="#000000" font-family="sans-serif" font-size="5.3974" lengthAdjust="spacing" textLength="32.8754" x="6.3788" y="543.0593">-name : String</text><text fill="#000000" font-family="sans-serif" font-size="5.3974" lengthAdjust="spacing" textLength="56.9185" x="6.3788" y="549.8483">-currentTaskingId : UUID</text><line style="stroke:#181818;stroke-width:0.2453385672227674;" x1="3.9254" x2="82.4338" y1="552.997" y2="552.997"/><text fill="#000000" font-family="sans-serif" font-size="5.3974" lengthAdjust="spacing" textLength="63.788" x="6.3788" y="560.5627">+Responder(name : String)</text><text fill="#000000" font-family="sans-serif" font-size="5.3974" lengthAdjust="spacing" textLength="33.8567" x="6.3788" y="567.3517">+getId() : UUID</text><text fill="#000000" font-family="sans-serif" font-size="5.3974" lengthAdjust="spacing" textLength="45.633" x="6.3788" y="574.1406">+getName() : String</text><text fill="#000000" font-family="sans-serif" font-size="5.3974" lengthAdjust="spacing" textLength="58.3906" x="6.3788" y="580.9296">+setName(name : String)</text><text fill="#000000" font-family="sans-serif" font-size="5.3974" lengthAdjust="spacing" textLength="69.6762" x="6.3788" y="587.7186">+getCurrentTaskingId() : UUID</text><text fill="#000000" font-family="sans-serif" font-size="5.3974" lengthAdjust="spacing" textLength="73.6016" x="6.3788" y="594.5076">+setCurrentTaskingId(id : UUID)</text><text fill="#000000" font-family="sans-serif" font-size="5.3974" lengthAdjust="spacing" textLength="55.4465" x="6.3788" y="601.2966">+isAvailable() : boolean</text><text fill="#000000" font-family="sans-serif" font-size="5.3974" lengthAdjust="spacing" textLength="43.1796" x="6.3788" y="608.0855">+toString() : String</text></g><!--class Resource--><g id="elem_Resource"><rect codeLine="98" fill="#F1F1F1" height="97.2499" id="Resource" rx="1.2267" ry="1.2267" style="stroke:#181818;stroke-width:0.2453385672227674;" width="87.3405" x="431.7959" y="19.1364"/><ellipse cx="461.9725" cy="26.4966" fill="#ADD1B2" rx="4.9068" ry="4.9068" style="stroke:#181818;stroke-width:0.4906771344455348;"/><path d="M462.7009,25.1242 Q462.7545,25.0475 462.8159,25.0092 Q462.8849,24.9709 462.9615,24.9709 Q463.0919,24.9709 463.1685,25.0629 Q463.2529,25.1549 463.2529,25.3619 L463.2529,25.8679 Q463.2529,26.0749 463.1685,26.1669 Q463.0919,26.2589 462.9615,26.2589 Q462.8389,26.2589 462.7699,26.1899 Q462.7009,26.1286 462.6625,25.9446 Q462.6472,25.8219 462.5859,25.7605 Q462.4632,25.6302 462.2485,25.5535 Q462.0415,25.4769 461.8269,25.4769 Q461.5662,25.4769 461.3438,25.5919 Q461.1215,25.7069 460.9528,25.9676 Q460.7842,26.2206 460.7842,26.5809 L460.7842,26.9642 Q460.7842,27.3859 461.0908,27.6696 Q461.4052,27.9533 461.9495,27.9533 Q462.2792,27.9533 462.5092,27.8689 Q462.6395,27.8153 462.7852,27.6619 Q462.8772,27.5699 462.9309,27.5469 Q462.9845,27.5163 463.0459,27.5163 Q463.1685,27.5163 463.2529,27.6083 Q463.3449,27.6926 463.3449,27.8153 Q463.3449,27.9379 463.2222,28.0759 Q463.0459,28.2753 462.7699,28.3903 Q462.4019,28.5436 461.9572,28.5436 Q461.4282,28.5436 461.0142,28.3289 Q460.6692,28.1603 460.4315,27.7846 Q460.1938,27.4089 460.1938,26.9719 L460.1938,26.5732 Q460.1938,26.1132 460.4085,25.7145 Q460.6232,25.3159 460.9988,25.1012 Q461.3822,24.8865 461.8039,24.8865 Q462.0645,24.8865 462.2869,24.9479 Q462.5092,25.0015 462.7009,25.1242 Z " fill="#000000"/><text fill="#000000" font-family="sans-serif" font-size="5.3974" lengthAdjust="spacing" textLength="23.0618" x="471.2954" y="28.7051">Resource</text><line style="stroke:#181818;stroke-width:0.2453385672227674;" x1="432.2866" x2="518.6457" y1="33.8567" y2="33.8567"/><text fill="#000000" font-family="sans-serif" font-size="5.3974" lengthAdjust="spacing" textLength="21.5898" x="434.7399" y="41.4224">-id : UUID</text><text fill="#000000" font-family="sans-serif" font-size="5.3974" lengthAdjust="spacing" textLength="53.4838" x="434.7399" y="48.2114">-resourceType : String</text><text fill="#000000" font-family="sans-serif" font-size="5.3974" lengthAdjust="spacing" textLength="45.633" x="434.7399" y="55.0004">-available : boolean</text><line style="stroke:#181818;stroke-width:0.2453385672227674;" x1="432.2866" x2="518.6457" y1="58.1491" y2="58.1491"/><text fill="#000000" font-family="sans-serif" font-size="5.3974" lengthAdjust="spacing" textLength="81.4524" x="434.7399" y="65.7148">+Resource(resourceType : String)</text><text fill="#000000" font-family="sans-serif" font-size="5.3974" lengthAdjust="spacing" textLength="33.8567" x="434.7399" y="72.5038">+getId() : UUID</text><text fill="#000000" font-family="sans-serif" font-size="5.3974" lengthAdjust="spacing" textLength="67.2228" x="434.7399" y="79.2928">+getResourceType() : String</text><text fill="#000000" font-family="sans-serif" font-size="5.3974" lengthAdjust="spacing" textLength="77.527" x="434.7399" y="86.0817">+setResourceType(type : String)</text><text fill="#000000" font-family="sans-serif" font-size="5.3974" lengthAdjust="spacing" textLength="55.4465" x="434.7399" y="92.8707">+isAvailable() : boolean</text><text fill="#000000" font-family="sans-serif" font-size="5.3974" lengthAdjust="spacing" textLength="40.2355" x="434.7399" y="99.6597">+markAllocated()</text><text fill="#000000" font-family="sans-serif" font-size="5.3974" lengthAdjust="spacing" textLength="39.7448" x="434.7399" y="106.4487">+markAvailable()</text><text fill="#000000" font-family="sans-serif" font-size="5.3974" lengthAdjust="spacing" textLength="43.1796" x="434.7399" y="113.2376">+toString() : String</text></g><!--class User--><g id="elem_User"><rect codeLine="112" fill="#F1F1F1" height="97.2499" id="User" rx="1.2267" ry="1.2267" style="stroke:#181818;stroke-width:0.2453385672227674;" width="103.5329" x="534.1021" y="19.1364"/><ellipse cx="578.263" cy="26.4966" fill="#ADD1B2" rx="4.9068" ry="4.9068" style="stroke:#181818;stroke-width:0.4906771344455348;"/><path d="M578.9914,25.1242 Q579.045,25.0475 579.1064,25.0092 Q579.1754,24.9709 579.252,24.9709 Q579.3824,24.9709 579.459,25.0629 Q579.5434,25.1549 579.5434,25.3619 L579.5434,25.8679 Q579.5434,26.0749 579.459,26.1669 Q579.3824,26.2589 579.252,26.2589 Q579.1294,26.2589 579.0604,26.1899 Q578.9914,26.1286 578.953,25.9446 Q578.9377,25.8219 578.8763,25.7605 Q578.7537,25.6302 578.539,25.5535 Q578.332,25.4769 578.1173,25.4769 Q577.8567,25.4769 577.6343,25.5919 Q577.412,25.7069 577.2433,25.9676 Q577.0746,26.2206 577.0746,26.5809 L577.0746,26.9642 Q577.0746,27.3859 577.3813,27.6696 Q577.6957,27.9533 578.24,27.9533 Q578.5697,27.9533 578.7997,27.8689 Q578.93,27.8153 579.0757,27.6619 Q579.1677,27.5699 579.2214,27.5469 Q579.275,27.5163 579.3364,27.5163 Q579.459,27.5163 579.5434,27.6083 Q579.6354,27.6926 579.6354,27.8153 Q579.6354,27.9379 579.5127,28.0759 Q579.3364,28.2753 579.0604,28.3903 Q578.6923,28.5436 578.2477,28.5436 Q577.7187,28.5436 577.3046,28.3289 Q576.9596,28.1603 576.722,27.7846 Q576.4843,27.4089 576.4843,26.9719 L576.4843,26.5732 Q576.4843,26.1132 576.699,25.7145 Q576.9136,25.3159 577.2893,25.1012 Q577.6727,24.8865 578.0943,24.8865 Q578.355,24.8865 578.5773,24.9479 Q578.7997,25.0015 578.9914,25.1242 Z " fill="#000000"/><text fill="#000000" font-family="sans-serif" font-size="5.3974" lengthAdjust="spacing" textLength="11.2856" x="587.5859" y="28.7051">User</text><line style="stroke:#181818;stroke-width:0.2453385672227674;" x1="534.5927" x2="637.1443" y1="33.8567" y2="33.8567"/><text fill="#000000" font-family="sans-serif" font-size="5.3974" lengthAdjust="spacing" textLength="21.5898" x="537.0461" y="41.4224">-id : UUID</text><text fill="#000000" font-family="sans-serif" font-size="5.3974" lengthAdjust="spacing" textLength="43.6703" x="537.0461" y="48.2114">-username : String</text><text fill="#000000" font-family="sans-serif" font-size="5.3974" lengthAdjust="spacing" textLength="36.8008" x="537.0461" y="55.0004">-role : UserRole</text><line style="stroke:#181818;stroke-width:0.2453385672227674;" x1="534.5927" x2="637.1443" y1="58.1491" y2="58.1491"/><text fill="#000000" font-family="sans-serif" font-size="5.3974" lengthAdjust="spacing" textLength="97.6447" x="537.0461" y="65.7148">+User(username : String, role : UserRole)</text><text fill="#000000" font-family="sans-serif" font-size="5.3974" lengthAdjust="spacing" textLength="33.8567" x="537.0461" y="72.5038">+getId() : UUID</text><text fill="#000000" font-family="sans-serif" font-size="5.3974" lengthAdjust="spacing" textLength="56.4279" x="537.0461" y="79.2928">+getUsername() : String</text><text fill="#000000" font-family="sans-serif" font-size="5.3974" lengthAdjust="spacing" textLength="79.9804" x="537.0461" y="86.0817">+setUsername(username : String)</text><text fill="#000000" font-family="sans-serif" font-size="5.3974" lengthAdjust="spacing" textLength="50.5397" x="537.0461" y="92.8707">+getRole() : UserRole</text><text fill="#000000" font-family="sans-serif" font-size="5.3974" lengthAdjust="spacing" textLength="59.3719" x="537.0461" y="99.6597">+setRole(role : UserRole)</text><text fill="#000000" font-family="sans-serif" font-size="5.3974" lengthAdjust="spacing" textLength="65.2601" x="537.0461" y="106.4487">+isAdministrator() : boolean</text><text fill="#000000" font-family="sans-serif" font-size="5.3974" lengthAdjust="spacing" textLength="43.1796" x="537.0461" y="113.2376">+toString() : String</text></g><!--class AuditLog--><g id="elem_AuditLog"><rect codeLine="126" fill="#F1F1F1" height="63.305" id="AuditLog" rx="1.2267" ry="1.2267" style="stroke:#181818;stroke-width:0.2453385672227674;" width="68.6948" x="108.9303" y="530.9127"/><ellipse cx="130.7655" cy="538.2728" fill="#ADD1B2" rx="4.9068" ry="4.9068" style="stroke:#181818;stroke-width:0.4906771344455348;"/><path d="M131.4938,536.9005 Q131.5475,536.8238 131.6088,536.7855 Q131.6778,536.7471 131.7545,536.7471 Q131.8848,536.7471 131.9615,536.8391 Q132.0458,536.9311 132.0458,537.1381 L132.0458,537.6441 Q132.0458,537.8511 131.9615,537.9431 Q131.8848,538.0351 131.7545,538.0351 Q131.6318,538.0351 131.5628,537.9661 Q131.4938,537.9048 131.4555,537.7208 Q131.4401,537.5981 131.3788,537.5368 Q131.2561,537.4065 131.0415,537.3298 Q130.8345,537.2531 130.6198,537.2531 Q130.3591,537.2531 130.1368,537.3681 Q129.9144,537.4831 129.7458,537.7438 Q129.5771,537.9968 129.5771,538.3572 L129.5771,538.7405 Q129.5771,539.1622 129.8838,539.4458 Q130.1981,539.7295 130.7425,539.7295 Q131.0721,539.7295 131.3021,539.6452 Q131.4325,539.5915 131.5781,539.4382 Q131.6701,539.3462 131.7238,539.3232 Q131.7775,539.2925 131.8388,539.2925 Q131.9615,539.2925 132.0458,539.3845 Q132.1378,539.4688 132.1378,539.5915 Q132.1378,539.7142 132.0151,539.8522 Q131.8388,540.0515 131.5628,540.1665 Q131.1948,540.3199 130.7501,540.3199 Q130.2211,540.3199 129.8071,540.1052 Q129.4621,539.9365 129.2244,539.5608 Q128.9868,539.1852 128.9868,538.7482 L128.9868,538.3495 Q128.9868,537.8895 129.2014,537.4908 Q129.4161,537.0921 129.7918,536.8775 Q130.1751,536.6628 130.5968,536.6628 Q130.8575,536.6628 131.0798,536.7241 Q131.3021,536.7778 131.4938,536.9005 Z " fill="#000000"/><text fill="#000000" font-family="sans-serif" font-size="5.3974" lengthAdjust="spacing" textLength="21.0991" x="140.0883" y="540.4813">AuditLog</text><line style="stroke:#181818;stroke-width:0.2453385672227674;" x1="109.421" x2="177.1344" y1="545.633" y2="545.633"/><text fill="#000000" font-family="sans-serif" font-size="5.3974" lengthAdjust="spacing" textLength="50.5397" x="111.8744" y="553.1987">-entries : List&lt;String&gt;</text><line style="stroke:#181818;stroke-width:0.2453385672227674;" x1="109.421" x2="177.1344" y1="556.3474" y2="556.3474"/><text fill="#000000" font-family="sans-serif" font-size="5.3974" lengthAdjust="spacing" textLength="27.9686" x="111.8744" y="563.9131">+AuditLog()</text><text fill="#000000" font-family="sans-serif" font-size="5.3974" lengthAdjust="spacing" textLength="26.4966" x="111.8744" y="570.7021">+size() : int</text><text fill="#000000" font-family="sans-serif" font-size="5.3974" lengthAdjust="spacing" textLength="62.8067" x="111.8744" y="577.491">+getEntries() : List&lt;String&gt;</text><text fill="#000000" font-family="sans-serif" font-size="5.3974" lengthAdjust="spacing" textLength="62.316" x="111.8744" y="584.28">+record(message : String)</text><text fill="#000000" font-family="sans-serif" font-size="5.3974" lengthAdjust="spacing" textLength="43.1796" x="111.8744" y="591.069">+toString() : String</text></g><!--class GpsCoordinate--><g id="elem_GpsCoordinate"><rect codeLine="135" fill="#F1F1F1" height="115.2095" id="GpsCoordinate" rx="1.2267" ry="1.2267" style="stroke:#181818;stroke-width:0.2453385672227674;" width="129.0481" x="192.5908" y="504.9068"/><ellipse cx="236.261" cy="514.4577" fill="#ADD1B2" rx="4.9068" ry="4.9068" style="stroke:#181818;stroke-width:0.4906771344455348;"/><path d="M236.9894,513.0854 Q237.0431,513.0087 237.1044,512.9704 Q237.1734,512.932 237.2501,512.932 Q237.3804,512.932 237.4571,513.024 Q237.5414,513.116 237.5414,513.323 L237.5414,513.829 Q237.5414,514.036 237.4571,514.1281 Q237.3804,514.2201 237.2501,514.2201 Q237.1274,514.2201 237.0584,514.1511 Q236.9894,514.0897 236.9511,513.9057 Q236.9357,513.783 236.8744,513.7217 Q236.7517,513.5914 236.537,513.5147 Q236.33,513.438 236.1154,513.438 Q235.8547,513.438 235.6324,513.553 Q235.41,513.668 235.2414,513.9287 Q235.0727,514.1817 235.0727,514.5421 L235.0727,514.9254 Q235.0727,515.3471 235.3794,515.6308 Q235.6937,515.9144 236.238,515.9144 Q236.5677,515.9144 236.7977,515.8301 Q236.9281,515.7764 237.0737,515.6231 Q237.1657,515.5311 237.2194,515.5081 Q237.2731,515.4774 237.3344,515.4774 Q237.4571,515.4774 237.5414,515.5694 Q237.6334,515.6538 237.6334,515.7764 Q237.6334,515.8991 237.5107,516.0371 Q237.3344,516.2364 237.0584,516.3514 Q236.6904,516.5048 236.2457,516.5048 Q235.7167,516.5048 235.3027,516.2901 Q234.9577,516.1214 234.72,515.7458 Q234.4823,515.3701 234.4823,514.9331 L234.4823,514.5344 Q234.4823,514.0744 234.697,513.6757 Q234.9117,513.277 235.2874,513.0624 Q235.6707,512.8477 236.0924,512.8477 Q236.353,512.8477 236.5754,512.909 Q236.7977,512.9627 236.9894,513.0854 Z " fill="#000000"/><text fill="#000000" font-family="sans-serif" font-size="5.8881" font-style="italic" lengthAdjust="spacing" textLength="39.7448" x="244.6026" y="513.4725">&#171;value object&#187;</text><text fill="#000000" font-family="sans-serif" font-size="5.3974" lengthAdjust="spacing" textLength="35.3288" x="246.8106" y="520.3693">GpsCoordinate</text><line style="stroke:#181818;stroke-width:0.2453385672227674;" x1="193.0815" x2="321.1482" y1="524.0087" y2="524.0087"/><text fill="#000000" font-family="sans-serif" font-size="5.3974" lengthAdjust="spacing" text-decoration="underline" textLength="76.055" x="195.5348" y="531.5744">+MIN_LATITUDE : double = -90.0</text><text fill="#000000" font-family="sans-serif" font-size="5.3974" lengthAdjust="spacing" text-decoration="underline" textLength="77.0363" x="195.5348" y="538.3634">+MAX_LATITUDE : double = 90.0</text><text fill="#000000" font-family="sans-serif" font-size="5.3974" lengthAdjust="spacing" text-decoration="underline" textLength="83.4151" x="195.5348" y="545.1524">+MIN_LONGITUDE : double = -180.0</text><text fill="#000000" font-family="sans-serif" font-size="5.3974" lengthAdjust="spacing" text-decoration="underline" textLength="84.3965" x="195.5348" y="551.9413">+MAX_LONGITUDE : double = 180.0</text><text fill="#000000" font-family="sans-serif" font-size="5.3974" lengthAdjust="spacing" textLength="38.7635" x="195.5348" y="558.7303">-latitude : double</text><text fill="#000000" font-family="sans-serif" font-size="5.3974" lengthAdjust="spacing" textLength="43.1796" x="195.5348" y="565.5193">-longitude : double</text><line style="stroke:#181818;stroke-width:0.2453385672227674;" x1="193.0815" x2="321.1482" y1="568.668" y2="568.668"/><text fill="#000000" font-family="sans-serif" font-size="5.3974" lengthAdjust="spacing" textLength="123.16" x="195.5348" y="576.2337">+GpsCoordinate(latitude : double, longitude : double)</text><text fill="#000000" font-family="sans-serif" font-size="5.3974" lengthAdjust="spacing" text-decoration="underline" textLength="102.5515" x="195.5348" y="583.0227">+captureCurrentLocation() : GpsCoordinate</text><text fill="#000000" font-family="sans-serif" font-size="5.3974" lengthAdjust="spacing" textLength="52.9931" x="195.5348" y="589.8116">+getLatitude() : double</text><text fill="#000000" font-family="sans-serif" font-size="5.3974" lengthAdjust="spacing" textLength="57.4092" x="195.5348" y="596.6006">+getLongitude() : double</text><text fill="#000000" font-family="sans-serif" font-size="5.3974" lengthAdjust="spacing" textLength="43.1796" x="195.5348" y="603.3896">+toString() : String</text><text fill="#000000" font-family="sans-serif" font-size="5.3974" lengthAdjust="spacing" textLength="68.2041" x="195.5348" y="610.1786">+equals(o : Object) : boolean</text><text fill="#000000" font-family="sans-serif" font-size="5.3974" lengthAdjust="spacing" textLength="40.7262" x="195.5348" y="616.9676">+hashCode() : int</text></g><!--class TestRunReport--><g id="elem_TestRunReport"><rect codeLine="151" fill="#F1F1F1" height="128.7874" id="TestRunReport" rx="1.2267" ry="1.2267" style="stroke:#181818;stroke-width:0.2453385672227674;" width="267.419" x="652.3553" y="3.4347"/><ellipse cx="765.211" cy="12.9857" fill="#ADD1B2" rx="4.9068" ry="4.9068" style="stroke:#181818;stroke-width:0.4906771344455348;"/><path d="M765.9393,11.6133 Q765.993,11.5367 766.0543,11.4983 Q766.1233,11.46 766.2,11.46 Q766.3303,11.46 766.407,11.552 Q766.4914,11.644 766.4914,11.851 L766.4914,12.357 Q766.4914,12.564 766.407,12.656 Q766.3303,12.748 766.2,12.748 Q766.0773,12.748 766.0083,12.679 Q765.9393,12.6177 765.901,12.4337 Q765.8857,12.311 765.8243,12.2497 Q765.7017,12.1193 765.487,12.0427 Q765.28,11.966 765.0653,11.966 Q764.8046,11.966 764.5823,12.081 Q764.36,12.196 764.1913,12.4567 Q764.0226,12.7097 764.0226,13.07 L764.0226,13.4534 Q764.0226,13.875 764.3293,14.1587 Q764.6436,14.4424 765.188,14.4424 Q765.5177,14.4424 765.7477,14.3581 Q765.878,14.3044 766.0237,14.1511 Q766.1157,14.059 766.1693,14.036 Q766.223,14.0054 766.2843,14.0054 Q766.407,14.0054 766.4914,14.0974 Q766.5834,14.1817 766.5834,14.3044 Q766.5834,14.4271 766.4607,14.5651 Q766.2843,14.7644 766.0083,14.8794 Q765.6403,15.0327 765.1957,15.0327 Q764.6666,15.0327 764.2526,14.8181 Q763.9076,14.6494 763.67,14.2737 Q763.4323,13.898 763.4323,13.461 L763.4323,13.0624 Q763.4323,12.6024 763.647,12.2037 Q763.8616,11.805 764.2373,11.5903 Q764.6206,11.3757 765.0423,11.3757 Q765.303,11.3757 765.5253,11.437 Q765.7477,11.4907 765.9393,11.6133 Z " fill="#000000"/><text fill="#000000" font-family="sans-serif" font-size="5.8881" font-style="italic" lengthAdjust="spacing" textLength="39.7448" x="773.5525" y="12.0005">&#171;value object&#187;</text><text fill="#000000" font-family="sans-serif" font-size="5.3974" lengthAdjust="spacing" textLength="35.3288" x="775.7605" y="18.8973">TestRunReport</text><line style="stroke:#181818;stroke-width:0.2453385672227674;" x1="652.8459" x2="919.2836" y1="22.5366" y2="22.5366"/><text fill="#000000" font-family="sans-serif" font-size="5.3974" lengthAdjust="spacing" textLength="37.2915" x="655.2993" y="30.1024">-testsRun : long</text><text fill="#000000" font-family="sans-serif" font-size="5.3974" lengthAdjust="spacing" textLength="33.8567" x="655.2993" y="36.8913">-passed : long</text><text fill="#000000" font-family="sans-serif" font-size="5.3974" lengthAdjust="spacing" textLength="28.95" x="655.2993" y="43.6803">-failed : long</text><text fill="#000000" font-family="sans-serif" font-size="5.3974" lengthAdjust="spacing" textLength="42.1982" x="655.2993" y="50.4693">-durationMs : long</text><text fill="#000000" font-family="sans-serif" font-size="5.3974" lengthAdjust="spacing" textLength="75.0736" x="655.2993" y="57.2583">-failureSummaries : List&lt;String&gt;</text><line style="stroke:#181818;stroke-width:0.2453385672227674;" x1="652.8459" x2="919.2836" y1="60.407" y2="60.407"/><text fill="#000000" font-family="sans-serif" font-size="5.3974" lengthAdjust="spacing" textLength="261.5309" x="655.2993" y="67.9727">+TestRunReport(testsRun : long, passed : long, failed : long, durationMs : long, failureSummaries : List&lt;String&gt;)</text><text fill="#000000" font-family="sans-serif" font-size="5.3974" lengthAdjust="spacing" textLength="51.0304" x="655.2993" y="74.7617">+getTestsRun() : long</text><text fill="#000000" font-family="sans-serif" font-size="5.3974" lengthAdjust="spacing" textLength="46.1237" x="655.2993" y="81.5506">+getPassed() : long</text><text fill="#000000" font-family="sans-serif" font-size="5.3974" lengthAdjust="spacing" textLength="42.1982" x="655.2993" y="88.3396">+getFailed() : long</text><text fill="#000000" font-family="sans-serif" font-size="5.3974" lengthAdjust="spacing" textLength="54.9558" x="655.2993" y="95.1286">+getDurationMs() : long</text><text fill="#000000" font-family="sans-serif" font-size="5.3974" lengthAdjust="spacing" textLength="88.3219" x="655.2993" y="101.9176">+getFailureSummaries() : List&lt;String&gt;</text><text fill="#000000" font-family="sans-serif" font-size="5.3974" lengthAdjust="spacing" textLength="54.4652" x="655.2993" y="108.7065">+isAllGreen() : boolean</text><text fill="#000000" font-family="sans-serif" font-size="5.3974" lengthAdjust="spacing" textLength="43.1796" x="655.2993" y="115.4955">+toString() : String</text><text fill="#000000" font-family="sans-serif" font-size="5.3974" lengthAdjust="spacing" textLength="68.2041" x="655.2993" y="122.2845">+equals(o : Object) : boolean</text><text fill="#000000" font-family="sans-serif" font-size="5.3974" lengthAdjust="spacing" textLength="40.7262" x="655.2993" y="129.0735">+hashCode() : int</text></g><!--class IPartnerAgency--><g id="elem_IPartnerAgency"><rect codeLine="169" fill="#F1F1F1" height="45.8016" id="IPartnerAgency" rx="1.2267" ry="1.2267" style="stroke:#181818;stroke-width:0.2453385672227674;" width="108.4396" x="1156.7713" y="280.9127"/><ellipse cx="1190.6281" cy="288.2728" fill="#B4A7E5" rx="4.9068" ry="4.9068" style="stroke:#181818;stroke-width:0.4906771344455348;"/><path d="M1191.2184,287.3375 L1191.2184,289.6452 L1191.8164,289.6452 Q1192.0234,289.6452 1192.1154,289.7295 Q1192.2074,289.8062 1192.2074,289.9442 Q1192.2074,290.0745 1192.1154,290.1589 Q1192.0234,290.2355 1191.8164,290.2355 L1190.0301,290.2355 Q1189.823,290.2355 1189.731,290.1589 Q1189.639,290.0745 1189.639,289.9365 Q1189.639,289.8062 1189.731,289.7295 Q1189.823,289.6452 1190.0301,289.6452 L1190.6281,289.6452 L1190.6281,287.3375 L1190.0301,287.3375 Q1189.823,287.3375 1189.731,287.2608 Q1189.639,287.1765 1189.639,287.0461 Q1189.639,286.9081 1189.731,286.8315 Q1189.823,286.7471 1190.0301,286.7471 L1191.8164,286.7471 Q1192.0234,286.7471 1192.1154,286.8315 Q1192.2074,286.9081 1192.2074,287.0461 Q1192.2074,287.1765 1192.1154,287.2608 Q1192.0234,287.3375 1191.8164,287.3375 L1191.2184,287.3375 Z " fill="#000000"/><text fill="#000000" font-family="sans-serif" font-size="5.3974" font-style="italic" lengthAdjust="spacing" textLength="36.8008" x="1199.9509" y="290.4813">IPartnerAgency</text><line style="stroke:#181818;stroke-width:0.2453385672227674;" x1="1157.262" x2="1264.7203" y1="295.633" y2="295.633"/><text fill="#000000" font-family="sans-serif" font-size="5.3974" lengthAdjust="spacing" textLength="60.844" x="1159.7154" y="303.1987">+notify(incident : Incident)</text><text fill="#000000" font-family="sans-serif" font-size="5.3974" lengthAdjust="spacing" textLength="102.5515" x="1159.7154" y="309.9877">+acknowledge(incident : Incident) : boolean</text><text fill="#000000" font-family="sans-serif" font-size="5.3974" lengthAdjust="spacing" textLength="64.2787" x="1159.7154" y="316.7767">+getAgencyName() : String</text><text fill="#000000" font-family="sans-serif" font-size="5.3974" lengthAdjust="spacing" textLength="49.0677" x="1159.7154" y="323.5656">+availableUnits() : int</text></g><!--class FireEmergencyService--><g id="elem_FireEmergencyService"><rect codeLine="176" fill="#F1F1F1" height="19.1019" id="FireEmergencyService" rx="1.2267" ry="1.2267" style="stroke:#181818;stroke-width:0.2453385672227674;" width="68.2041" x="934.4946" y="58.1452"/><ellipse cx="941.3641" cy="67.6962" fill="#ADD1B2" rx="4.9068" ry="4.9068" style="stroke:#181818;stroke-width:0.4906771344455348;"/><path d="M942.0924,66.3238 Q942.1461,66.2472 942.2074,66.2088 Q942.2764,66.1705 942.3531,66.1705 Q942.4834,66.1705 942.5601,66.2625 Q942.6444,66.3545 942.6444,66.5615 L942.6444,67.0675 Q942.6444,67.2745 942.5601,67.3665 Q942.4834,67.4585 942.3531,67.4585 Q942.2304,67.4585 942.1614,67.3895 Q942.0924,67.3282 942.0541,67.1442 Q942.0388,67.0215 941.9774,66.9602 Q941.8548,66.8298 941.6401,66.7532 Q941.4331,66.6765 941.2184,66.6765 Q940.9577,66.6765 940.7354,66.7915 Q940.5131,66.9065 940.3444,67.1672 Q940.1757,67.4202 940.1757,67.7805 L940.1757,68.1639 Q940.1757,68.5855 940.4824,68.8692 Q940.7967,69.1529 941.3411,69.1529 Q941.6708,69.1529 941.9008,69.0686 Q942.0311,69.0149 942.1768,68.8616 Q942.2688,68.7696 942.3224,68.7465 Q942.3761,68.7159 942.4374,68.7159 Q942.5601,68.7159 942.6444,68.8079 Q942.7364,68.8922 942.7364,69.0149 Q942.7364,69.1376 942.6138,69.2756 Q942.4374,69.4749 942.1614,69.5899 Q941.7934,69.7432 941.3487,69.7432 Q940.8197,69.7432 940.4057,69.5286 Q940.0607,69.3599 939.823,68.9842 Q939.5854,68.6085 939.5854,68.1715 L939.5854,67.7729 Q939.5854,67.3129 939.8,66.9142 Q940.0147,66.5155 940.3904,66.3008 Q940.7737,66.0862 941.1954,66.0862 Q941.4561,66.0862 941.6784,66.1475 Q941.9008,66.2012 942.0924,66.3238 Z " fill="#000000"/><text fill="#000000" font-family="sans-serif" font-size="5.8881" font-style="italic" lengthAdjust="spacing" textLength="18.6457" x="965.1619" y="66.711">&#171;stub&#187;</text><text fill="#000000" font-family="sans-serif" font-size="5.3974" lengthAdjust="spacing" textLength="53.4838" x="947.7429" y="73.6078">FireEmergencyService</text></g><!--class HospitalSystem--><g id="elem_HospitalSystem"><rect codeLine="177" fill="#F1F1F1" height="19.1019" id="HospitalSystem" rx="1.2267" ry="1.2267" style="stroke:#181818;stroke-width:0.2453385672227674;" width="51.0304" x="1017.6644" y="58.1452"/><ellipse cx="1024.5339" cy="67.6962" fill="#ADD1B2" rx="4.9068" ry="4.9068" style="stroke:#181818;stroke-width:0.4906771344455348;"/><path d="M1025.2622,66.3238 Q1025.3159,66.2472 1025.3772,66.2088 Q1025.4462,66.1705 1025.5229,66.1705 Q1025.6532,66.1705 1025.7299,66.2625 Q1025.8142,66.3545 1025.8142,66.5615 L1025.8142,67.0675 Q1025.8142,67.2745 1025.7299,67.3665 Q1025.6532,67.4585 1025.5229,67.4585 Q1025.4002,67.4585 1025.3312,67.3895 Q1025.2622,67.3282 1025.2239,67.1442 Q1025.2085,67.0215 1025.1472,66.9602 Q1025.0245,66.8298 1024.8099,66.7532 Q1024.6029,66.6765 1024.3882,66.6765 Q1024.1275,66.6765 1023.9052,66.7915 Q1023.6828,66.9065 1023.5142,67.1672 Q1023.3455,67.4202 1023.3455,67.7805 L1023.3455,68.1639 Q1023.3455,68.5855 1023.6522,68.8692 Q1023.9665,69.1529 1024.5109,69.1529 Q1024.8405,69.1529 1025.0705,69.0686 Q1025.2009,69.0149 1025.3465,68.8616 Q1025.4385,68.7696 1025.4922,68.7465 Q1025.5459,68.7159 1025.6072,68.7159 Q1025.7299,68.7159 1025.8142,68.8079 Q1025.9062,68.8922 1025.9062,69.0149 Q1025.9062,69.1376 1025.7836,69.2756 Q1025.6072,69.4749 1025.3312,69.5899 Q1024.9632,69.7432 1024.5185,69.7432 Q1023.9895,69.7432 1023.5755,69.5286 Q1023.2305,69.3599 1022.9928,68.9842 Q1022.7552,68.6085 1022.7552,68.1715 L1022.7552,67.7729 Q1022.7552,67.3129 1022.9698,66.9142 Q1023.1845,66.5155 1023.5602,66.3008 Q1023.9435,66.0862 1024.3652,66.0862 Q1024.6259,66.0862 1024.8482,66.1475 Q1025.0705,66.2012 1025.2622,66.3238 Z " fill="#000000"/><text fill="#000000" font-family="sans-serif" font-size="5.8881" font-style="italic" lengthAdjust="spacing" textLength="18.6457" x="1039.7448" y="66.711">&#171;stub&#187;</text><text fill="#000000" font-family="sans-serif" font-size="5.3974" lengthAdjust="spacing" textLength="36.3101" x="1030.9127" y="73.6078">HospitalSystem</text></g><!--class ElectricityUtility--><g id="elem_ElectricityUtility"><rect codeLine="178" fill="#F1F1F1" height="19.1019" id="ElectricityUtility" rx="1.2267" ry="1.2267" style="stroke:#181818;stroke-width:0.2453385672227674;" width="49.5584" x="1083.6605" y="58.1452"/><ellipse cx="1090.5299" cy="67.6962" fill="#ADD1B2" rx="4.9068" ry="4.9068" style="stroke:#181818;stroke-width:0.4906771344455348;"/><path d="M1091.2583,66.3238 Q1091.3119,66.2472 1091.3733,66.2088 Q1091.4423,66.1705 1091.519,66.1705 Q1091.6493,66.1705 1091.726,66.2625 Q1091.8103,66.3545 1091.8103,66.5615 L1091.8103,67.0675 Q1091.8103,67.2745 1091.726,67.3665 Q1091.6493,67.4585 1091.519,67.4585 Q1091.3963,67.4585 1091.3273,67.3895 Q1091.2583,67.3282 1091.2199,67.1442 Q1091.2046,67.0215 1091.1433,66.9602 Q1091.0206,66.8298 1090.8059,66.7532 Q1090.5989,66.6765 1090.3843,66.6765 Q1090.1236,66.6765 1089.9013,66.7915 Q1089.6789,66.9065 1089.5102,67.1672 Q1089.3416,67.4202 1089.3416,67.7805 L1089.3416,68.1639 Q1089.3416,68.5855 1089.6482,68.8692 Q1089.9626,69.1529 1090.5069,69.1529 Q1090.8366,69.1529 1091.0666,69.0686 Q1091.1969,69.0149 1091.3426,68.8616 Q1091.4346,68.7696 1091.4883,68.7465 Q1091.542,68.7159 1091.6033,68.7159 Q1091.726,68.7159 1091.8103,68.8079 Q1091.9023,68.8922 1091.9023,69.0149 Q1091.9023,69.1376 1091.7796,69.2756 Q1091.6033,69.4749 1091.3273,69.5899 Q1090.9593,69.7432 1090.5146,69.7432 Q1089.9856,69.7432 1089.5716,69.5286 Q1089.2266,69.3599 1088.9889,68.9842 Q1088.7512,68.6085 1088.7512,68.1715 L1088.7512,67.7729 Q1088.7512,67.3129 1088.9659,66.9142 Q1089.1806,66.5155 1089.5562,66.3008 Q1089.9396,66.0862 1090.3613,66.0862 Q1090.6219,66.0862 1090.8443,66.1475 Q1091.0666,66.2012 1091.2583,66.3238 Z " fill="#000000"/><text fill="#000000" font-family="sans-serif" font-size="5.8881" font-style="italic" lengthAdjust="spacing" textLength="18.6457" x="1105.0049" y="66.711">&#171;stub&#187;</text><text fill="#000000" font-family="sans-serif" font-size="5.3974" lengthAdjust="spacing" textLength="34.8381" x="1096.9087" y="73.6078">ElectricityUtility</text></g><!--class TransportAuthority--><g id="elem_TransportAuthority"><rect codeLine="179" fill="#F1F1F1" height="19.1019" id="TransportAuthority" rx="1.2267" ry="1.2267" style="stroke:#181818;stroke-width:0.2453385672227674;" width="59.3719" x="1147.9392" y="58.1452"/><ellipse cx="1154.8086" cy="67.6962" fill="#ADD1B2" rx="4.9068" ry="4.9068" style="stroke:#181818;stroke-width:0.4906771344455348;"/><path d="M1155.537,66.3238 Q1155.5907,66.2472 1155.652,66.2088 Q1155.721,66.1705 1155.7977,66.1705 Q1155.928,66.1705 1156.0047,66.2625 Q1156.089,66.3545 1156.089,66.5615 L1156.089,67.0675 Q1156.089,67.2745 1156.0047,67.3665 Q1155.928,67.4585 1155.7977,67.4585 Q1155.675,67.4585 1155.606,67.3895 Q1155.537,67.3282 1155.4987,67.1442 Q1155.4833,67.0215 1155.422,66.9602 Q1155.2993,66.8298 1155.0846,66.7532 Q1154.8776,66.6765 1154.663,66.6765 Q1154.4023,66.6765 1154.18,66.7915 Q1153.9576,66.9065 1153.7889,67.1672 Q1153.6203,67.4202 1153.6203,67.7805 L1153.6203,68.1639 Q1153.6203,68.5855 1153.927,68.8692 Q1154.2413,69.1529 1154.7856,69.1529 Q1155.1153,69.1529 1155.3453,69.0686 Q1155.4757,69.0149 1155.6213,68.8616 Q1155.7133,68.7696 1155.767,68.7465 Q1155.8207,68.7159 1155.882,68.7159 Q1156.0047,68.7159 1156.089,68.8079 Q1156.181,68.8922 1156.181,69.0149 Q1156.181,69.1376 1156.0583,69.2756 Q1155.882,69.4749 1155.606,69.5899 Q1155.238,69.7432 1154.7933,69.7432 Q1154.2643,69.7432 1153.8503,69.5286 Q1153.5053,69.3599 1153.2676,68.9842 Q1153.0299,68.6085 1153.0299,68.1715 L1153.0299,67.7729 Q1153.0299,67.3129 1153.2446,66.9142 Q1153.4593,66.5155 1153.8349,66.3008 Q1154.2183,66.0862 1154.64,66.0862 Q1154.9006,66.0862 1155.123,66.1475 Q1155.3453,66.2012 1155.537,66.3238 Z " fill="#000000"/><text fill="#000000" font-family="sans-serif" font-size="5.8881" font-style="italic" lengthAdjust="spacing" textLength="18.6457" x="1174.1904" y="66.711">&#171;stub&#187;</text><text fill="#000000" font-family="sans-serif" font-size="5.3974" lengthAdjust="spacing" textLength="44.6516" x="1161.1874" y="73.6078">TransportAuthority</text></g><!--class PoliceService--><g id="elem_PoliceService"><rect codeLine="180" fill="#F1F1F1" height="19.1019" id="PoliceService" rx="1.2267" ry="1.2267" style="stroke:#181818;stroke-width:0.2453385672227674;" width="46.6143" x="1222.0314" y="58.1452"/><ellipse cx="1228.9009" cy="67.6962" fill="#ADD1B2" rx="4.9068" ry="4.9068" style="stroke:#181818;stroke-width:0.4906771344455348;"/><path d="M1229.6292,66.3238 Q1229.6829,66.2472 1229.7442,66.2088 Q1229.8132,66.1705 1229.8899,66.1705 Q1230.0202,66.1705 1230.0969,66.2625 Q1230.1812,66.3545 1230.1812,66.5615 L1230.1812,67.0675 Q1230.1812,67.2745 1230.0969,67.3665 Q1230.0202,67.4585 1229.8899,67.4585 Q1229.7672,67.4585 1229.6982,67.3895 Q1229.6292,67.3282 1229.5909,67.1442 Q1229.5756,67.0215 1229.5142,66.9602 Q1229.3916,66.8298 1229.1769,66.7532 Q1228.9699,66.6765 1228.7552,66.6765 Q1228.4945,66.6765 1228.2722,66.7915 Q1228.0499,66.9065 1227.8812,67.1672 Q1227.7125,67.4202 1227.7125,67.7805 L1227.7125,68.1639 Q1227.7125,68.5855 1228.0192,68.8692 Q1228.3335,69.1529 1228.8779,69.1529 Q1229.2076,69.1529 1229.4376,69.0686 Q1229.5679,69.0149 1229.7136,68.8616 Q1229.8056,68.7696 1229.8592,68.7465 Q1229.9129,68.7159 1229.9742,68.7159 Q1230.0969,68.7159 1230.1812,68.8079 Q1230.2732,68.8922 1230.2732,69.0149 Q1230.2732,69.1376 1230.1506,69.2756 Q1229.9742,69.4749 1229.6982,69.5899 Q1229.3302,69.7432 1228.8855,69.7432 Q1228.3565,69.7432 1227.9425,69.5286 Q1227.5975,69.3599 1227.3599,68.9842 Q1227.1222,68.6085 1227.1222,68.1715 L1227.1222,67.7729 Q1227.1222,67.3129 1227.3368,66.9142 Q1227.5515,66.5155 1227.9272,66.3008 Q1228.3105,66.0862 1228.7322,66.0862 Q1228.9929,66.0862 1229.2152,66.1475 Q1229.4376,66.2012 1229.6292,66.3238 Z " fill="#000000"/><text fill="#000000" font-family="sans-serif" font-size="5.8881" font-style="italic" lengthAdjust="spacing" textLength="18.6457" x="1241.9038" y="66.711">&#171;stub&#187;</text><text fill="#000000" font-family="sans-serif" font-size="5.3974" lengthAdjust="spacing" textLength="31.894" x="1235.2797" y="73.6078">PoliceService</text></g><!--class WasteManagementService--><g id="elem_WasteManagementService"><rect codeLine="181" fill="#F1F1F1" height="19.1019" id="WasteManagementService" rx="1.2267" ry="1.2267" style="stroke:#181818;stroke-width:0.2453385672227674;" width="78.0177" x="1283.366" y="58.1452"/><ellipse cx="1290.2355" cy="67.6962" fill="#ADD1B2" rx="4.9068" ry="4.9068" style="stroke:#181818;stroke-width:0.4906771344455348;"/><path d="M1290.9639,66.3238 Q1291.0175,66.2472 1291.0789,66.2088 Q1291.1479,66.1705 1291.2245,66.1705 Q1291.3549,66.1705 1291.4316,66.2625 Q1291.5159,66.3545 1291.5159,66.5615 L1291.5159,67.0675 Q1291.5159,67.2745 1291.4316,67.3665 Q1291.3549,67.4585 1291.2245,67.4585 Q1291.1019,67.4585 1291.0329,67.3895 Q1290.9639,67.3282 1290.9255,67.1442 Q1290.9102,67.0215 1290.8489,66.9602 Q1290.7262,66.8298 1290.5115,66.7532 Q1290.3045,66.6765 1290.0899,66.6765 Q1289.8292,66.6765 1289.6068,66.7915 Q1289.3845,66.9065 1289.2158,67.1672 Q1289.0472,67.4202 1289.0472,67.7805 L1289.0472,68.1639 Q1289.0472,68.5855 1289.3538,68.8692 Q1289.6682,69.1529 1290.2125,69.1529 Q1290.5422,69.1529 1290.7722,69.0686 Q1290.9025,69.0149 1291.0482,68.8616 Q1291.1402,68.7696 1291.1939,68.7465 Q1291.2475,68.7159 1291.3089,68.7159 Q1291.4316,68.7159 1291.5159,68.8079 Q1291.6079,68.8922 1291.6079,69.0149 Q1291.6079,69.1376 1291.4852,69.2756 Q1291.3089,69.4749 1291.0329,69.5899 Q1290.6649,69.7432 1290.2202,69.7432 Q1289.6912,69.7432 1289.2772,69.5286 Q1288.9322,69.3599 1288.6945,68.9842 Q1288.4568,68.6085 1288.4568,68.1715 L1288.4568,67.7729 Q1288.4568,67.3129 1288.6715,66.9142 Q1288.8862,66.5155 1289.2618,66.3008 Q1289.6452,66.0862 1290.0669,66.0862 Q1290.3275,66.0862 1290.5499,66.1475 Q1290.7722,66.2012 1290.9639,66.3238 Z " fill="#000000"/><text fill="#000000" font-family="sans-serif" font-size="5.8881" font-style="italic" lengthAdjust="spacing" textLength="18.6457" x="1318.9401" y="66.711">&#171;stub&#187;</text><text fill="#000000" font-family="sans-serif" font-size="5.3974" lengthAdjust="spacing" textLength="63.2974" x="1296.6143" y="73.6078">WasteManagementService</text></g><!--class WaterUtility--><g id="elem_WaterUtility"><rect codeLine="182" fill="#F1F1F1" height="19.1019" id="WaterUtility" rx="1.2267" ry="1.2267" style="stroke:#181818;stroke-width:0.2453385672227674;" width="41.2169" x="1376.3494" y="58.1452"/><ellipse cx="1383.2188" cy="67.6962" fill="#ADD1B2" rx="4.9068" ry="4.9068" style="stroke:#181818;stroke-width:0.4906771344455348;"/><path d="M1383.9472,66.3238 Q1384.0009,66.2472 1384.0622,66.2088 Q1384.1312,66.1705 1384.2079,66.1705 Q1384.3382,66.1705 1384.4149,66.2625 Q1384.4992,66.3545 1384.4992,66.5615 L1384.4992,67.0675 Q1384.4992,67.2745 1384.4149,67.3665 Q1384.3382,67.4585 1384.2079,67.4585 Q1384.0852,67.4585 1384.0162,67.3895 Q1383.9472,67.3282 1383.9089,67.1442 Q1383.8935,67.0215 1383.8322,66.9602 Q1383.7095,66.8298 1383.4948,66.7532 Q1383.2878,66.6765 1383.0732,66.6765 Q1382.8125,66.6765 1382.5902,66.7915 Q1382.3678,66.9065 1382.1992,67.1672 Q1382.0305,67.4202 1382.0305,67.7805 L1382.0305,68.1639 Q1382.0305,68.5855 1382.3372,68.8692 Q1382.6515,69.1529 1383.1958,69.1529 Q1383.5255,69.1529 1383.7555,69.0686 Q1383.8859,69.0149 1384.0315,68.8616 Q1384.1235,68.7696 1384.1772,68.7465 Q1384.2309,68.7159 1384.2922,68.7159 Q1384.4149,68.7159 1384.4992,68.8079 Q1384.5912,68.8922 1384.5912,69.0149 Q1384.5912,69.1376 1384.4685,69.2756 Q1384.2922,69.4749 1384.0162,69.5899 Q1383.6482,69.7432 1383.2035,69.7432 Q1382.6745,69.7432 1382.2605,69.5286 Q1381.9155,69.3599 1381.6778,68.9842 Q1381.4401,68.6085 1381.4401,68.1715 L1381.4401,67.7729 Q1381.4401,67.3129 1381.6548,66.9142 Q1381.8695,66.5155 1382.2452,66.3008 Q1382.6285,66.0862 1383.0502,66.0862 Q1383.3108,66.0862 1383.5332,66.1475 Q1383.7555,66.2012 1383.9472,66.3238 Z " fill="#000000"/><text fill="#000000" font-family="sans-serif" font-size="5.8881" font-style="italic" lengthAdjust="spacing" textLength="18.6457" x="1393.5231" y="66.711">&#171;stub&#187;</text><text fill="#000000" font-family="sans-serif" font-size="5.3974" lengthAdjust="spacing" textLength="26.4966" x="1389.5976" y="73.6078">WaterUtility</text></g><!--class EducationDepartment--><g id="elem_EducationDepartment"><rect codeLine="183" fill="#F1F1F1" height="19.1019" id="EducationDepartment" rx="1.2267" ry="1.2267" style="stroke:#181818;stroke-width:0.2453385672227674;" width="64.7694" x="1432.2866" y="58.1452"/><ellipse cx="1439.156" cy="67.6962" fill="#ADD1B2" rx="4.9068" ry="4.9068" style="stroke:#181818;stroke-width:0.4906771344455348;"/><path d="M1439.8844,66.3238 Q1439.9381,66.2472 1439.9994,66.2088 Q1440.0684,66.1705 1440.1451,66.1705 Q1440.2754,66.1705 1440.3521,66.2625 Q1440.4364,66.3545 1440.4364,66.5615 L1440.4364,67.0675 Q1440.4364,67.2745 1440.3521,67.3665 Q1440.2754,67.4585 1440.1451,67.4585 Q1440.0224,67.4585 1439.9534,67.3895 Q1439.8844,67.3282 1439.8461,67.1442 Q1439.8307,67.0215 1439.7694,66.9602 Q1439.6467,66.8298 1439.432,66.7532 Q1439.225,66.6765 1439.0104,66.6765 Q1438.7497,66.6765 1438.5274,66.7915 Q1438.305,66.9065 1438.1363,67.1672 Q1437.9677,67.4202 1437.9677,67.7805 L1437.9677,68.1639 Q1437.9677,68.5855 1438.2743,68.8692 Q1438.5887,69.1529 1439.133,69.1529 Q1439.4627,69.1529 1439.6927,69.0686 Q1439.823,69.0149 1439.9687,68.8616 Q1440.0607,68.7696 1440.1144,68.7465 Q1440.1681,68.7159 1440.2294,68.7159 Q1440.3521,68.7159 1440.4364,68.8079 Q1440.5284,68.8922 1440.5284,69.0149 Q1440.5284,69.1376 1440.4057,69.2756 Q1440.2294,69.4749 1439.9534,69.5899 Q1439.5854,69.7432 1439.1407,69.7432 Q1438.6117,69.7432 1438.1977,69.5286 Q1437.8527,69.3599 1437.615,68.9842 Q1437.3773,68.6085 1437.3773,68.1715 L1437.3773,67.7729 Q1437.3773,67.3129 1437.592,66.9142 Q1437.8067,66.5155 1438.1823,66.3008 Q1438.5657,66.0862 1438.9874,66.0862 Q1439.248,66.0862 1439.4704,66.1475 Q1439.6927,66.2012 1439.8844,66.3238 Z " fill="#000000"/><text fill="#000000" font-family="sans-serif" font-size="5.8881" font-style="italic" lengthAdjust="spacing" textLength="18.6457" x="1461.2365" y="66.711">&#171;stub&#187;</text><text fill="#000000" font-family="sans-serif" font-size="5.3974" lengthAdjust="spacing" textLength="50.0491" x="1445.5348" y="73.6078">EducationDepartment</text></g><g id="elem_GMN19"><path d="M1112.3651,543.1796 L1112.3651,582.0313 A0,0 0 0 0 1112.3651,582.0313 L1309.6173,582.0313 A0,0 0 0 0 1309.6173,582.0313 L1309.6173,548.0864 L1304.7105,543.1796 L1212.9539,543.1796 L1210.9912,326.6536 L1209.0285,543.1796 L1112.3651,543.1796 A0,0 0 0 0 1112.3651,543.1796 " fill="#FEFFDD" style="stroke:#181818;stroke-width:0.2453385672227674;"/><path d="M1304.7105,543.1796 L1304.7105,548.0864 L1309.6173,548.0864 L1304.7105,543.1796 " fill="#FEFFDD" style="stroke:#181818;stroke-width:0.2453385672227674;"/><text fill="#000000" font-family="sans-serif" font-size="5.3974" lengthAdjust="spacing" textLength="164.8675" x="1115.3091" y="551.236">Eight stub agencies realise this interface in the prototype, each with a</text><text fill="#000000" font-family="sans-serif" font-size="5.3974" lengthAdjust="spacing" textLength="186.948" x="1115.3091" y="558.025">fixed name and unit count - all of Assessment One's NFR-O04 named partners.</text><text fill="#000000" font-family="sans-serif" font-size="5.3974" lengthAdjust="spacing" textLength="169.7743" x="1115.3091" y="564.8139">IPartnerAgency remains the open-closed extension point: adding a ninth</text><text fill="#000000" font-family="sans-serif" font-size="5.3974" lengthAdjust="spacing" textLength="179.5878" x="1115.3091" y="571.6029">agency is a single new class implementing IPartnerAgency and registering it</text><text fill="#000000" font-family="sans-serif" font-size="5.3974" lengthAdjust="spacing" textLength="129.0481" x="1115.3091" y="578.3919">with PartnerNotifier; the notifier itself does not change.</text></g><!--class HazardType--><g id="elem_HazardType"><rect codeLine="193" fill="#F1F1F1" height="59.3796" id="HazardType" rx="1.2267" ry="1.2267" style="stroke:#181818;stroke-width:0.2453385672227674;" width="43.6703" x="336.3592" y="532.8754"/><ellipse cx="343.2287" cy="540.2355" fill="#EB937F" rx="4.9068" ry="4.9068" style="stroke:#181818;stroke-width:0.4906771344455348;"/><path d="M343.1673,540.7415 L343.1673,541.6079 L344.67,541.6079 L344.67,541.2859 Q344.67,541.0789 344.7467,540.9869 Q344.831,540.8949 344.9614,540.8949 Q345.0917,540.8949 345.176,540.9869 Q345.2604,541.0789 345.2604,541.2859 L345.2604,542.1982 L342.485,542.1982 Q342.2703,542.1982 342.1783,542.1216 Q342.0863,542.0372 342.0863,541.8992 Q342.0863,541.7689 342.1783,541.6922 Q342.2703,541.6079 342.485,541.6079 L342.577,541.6079 L342.577,539.3002 L342.485,539.3002 Q342.2703,539.3002 342.1783,539.2235 Q342.0863,539.1392 342.0863,539.0088 Q342.0863,538.8708 342.1783,538.7942 Q342.2703,538.7098 342.485,538.7098 L345.13,538.7098 L345.13,539.6068 Q345.13,539.8215 345.0457,539.9135 Q344.969,539.9979 344.831,539.9979 Q344.7007,539.9979 344.6164,539.9135 Q344.5397,539.8215 344.5397,539.6068 L344.5397,539.3002 L343.1673,539.3002 L343.1673,540.1512 L343.681,540.1512 Q343.681,539.9212 343.727,539.8599 Q343.8113,539.7142 343.98,539.7142 Q344.1103,539.7142 344.187,539.8062 Q344.2713,539.8982 344.2713,540.1129 L344.2713,540.7875 Q344.2713,540.9792 344.2253,541.0482 Q344.1333,541.1862 343.98,541.1862 Q343.8113,541.1862 343.727,541.0405 Q343.681,540.9792 343.681,540.7415 L343.1673,540.7415 Z " fill="#000000"/><text fill="#000000" font-family="sans-serif" font-size="5.3974" lengthAdjust="spacing" textLength="28.95" x="349.6075" y="542.4441">HazardType</text><line style="stroke:#181818;stroke-width:0.2453385672227674;" x1="336.8499" x2="379.5388" y1="547.5957" y2="547.5957"/><text fill="#000000" font-family="sans-serif" font-size="5.3974" lengthAdjust="spacing" textLength="28.4593" x="339.3032" y="555.1614">HURRICANE</text><text fill="#000000" font-family="sans-serif" font-size="5.3974" lengthAdjust="spacing" textLength="10.3042" x="339.3032" y="561.9504">FIRE</text><text fill="#000000" font-family="sans-serif" font-size="5.3974" lengthAdjust="spacing" textLength="34.3474" x="339.3032" y="568.7394">EARTHQUAKE</text><text fill="#000000" font-family="sans-serif" font-size="5.3974" lengthAdjust="spacing" textLength="17.1737" x="339.3032" y="575.5283">FLOOD</text><text fill="#000000" font-family="sans-serif" font-size="5.3974" lengthAdjust="spacing" textLength="17.6644" x="339.3032" y="582.3173">STORM</text><text fill="#000000" font-family="sans-serif" font-size="5.3974" lengthAdjust="spacing" textLength="21.5898" x="339.3032" y="589.1063">HAZMAT</text></g><!--class Severity--><g id="elem_Severity"><rect codeLine="201" fill="#F1F1F1" height="63.305" id="Severity" rx="1.2267" ry="1.2267" style="stroke:#181818;stroke-width:0.2453385672227674;" width="46.1237" x="394.9951" y="530.9127"/><ellipse cx="407.1639" cy="538.2728" fill="#EB937F" rx="4.9068" ry="4.9068" style="stroke:#181818;stroke-width:0.4906771344455348;"/><path d="M407.1026,538.7788 L407.1026,539.6452 L408.6053,539.6452 L408.6053,539.3232 Q408.6053,539.1162 408.6819,539.0242 Q408.7663,538.9322 408.8966,538.9322 Q409.0269,538.9322 409.1113,539.0242 Q409.1956,539.1162 409.1956,539.3232 L409.1956,540.2355 L406.4202,540.2355 Q406.2055,540.2355 406.1135,540.1589 Q406.0215,540.0745 406.0215,539.9365 Q406.0215,539.8062 406.1135,539.7295 Q406.2055,539.6452 406.4202,539.6452 L406.5122,539.6452 L406.5122,537.3375 L406.4202,537.3375 Q406.2055,537.3375 406.1135,537.2608 Q406.0215,537.1765 406.0215,537.0461 Q406.0215,536.9081 406.1135,536.8315 Q406.2055,536.7471 406.4202,536.7471 L409.0653,536.7471 L409.0653,537.6441 Q409.0653,537.8588 408.9809,537.9508 Q408.9043,538.0351 408.7663,538.0351 Q408.6359,538.0351 408.5516,537.9508 Q408.4749,537.8588 408.4749,537.6441 L408.4749,537.3375 L407.1026,537.3375 L407.1026,538.1885 L407.6162,538.1885 Q407.6162,537.9585 407.6622,537.8971 Q407.7466,537.7515 407.9152,537.7515 Q408.0456,537.7515 408.1222,537.8435 Q408.2066,537.9355 408.2066,538.1501 L408.2066,538.8248 Q408.2066,539.0165 408.1606,539.0855 Q408.0686,539.2235 407.9152,539.2235 Q407.7466,539.2235 407.6622,539.0778 Q407.6162,539.0165 407.6162,538.7788 L407.1026,538.7788 Z " fill="#000000"/><text fill="#000000" font-family="sans-serif" font-size="5.3974" lengthAdjust="spacing" textLength="19.6271" x="414.7203" y="540.4813">Severity</text><line style="stroke:#181818;stroke-width:0.2453385672227674;" x1="395.4858" x2="440.6281" y1="545.633" y2="545.633"/><text fill="#000000" font-family="sans-serif" font-size="5.3974" lengthAdjust="spacing" textLength="11.7763" x="397.9392" y="553.1987">LOW</text><text fill="#000000" font-family="sans-serif" font-size="5.3974" lengthAdjust="spacing" textLength="18.6457" x="397.9392" y="559.9877">MEDIUM</text><text fill="#000000" font-family="sans-serif" font-size="5.3974" lengthAdjust="spacing" textLength="11.7763" x="397.9392" y="566.7767">HIGH</text><text fill="#000000" font-family="sans-serif" font-size="5.3974" lengthAdjust="spacing" textLength="22.0805" x="397.9392" y="573.5656">CRITICAL</text><line style="stroke:#181818;stroke-width:0.4906771344455348;" x1="395.4858" x2="440.6281" y1="576.7143" y2="576.7143"/><text fill="#000000" font-family="sans-serif" font-size="5.3974" lengthAdjust="spacing" textLength="27.9686" x="397.9392" y="584.28">-priority : int</text><text fill="#000000" font-family="sans-serif" font-size="5.3974" lengthAdjust="spacing" textLength="40.2355" x="397.9392" y="591.069">+getPriority() : int</text></g><!--class IncidentStatus--><g id="elem_IncidentStatus"><rect codeLine="210" fill="#F1F1F1" height="39.0127" id="IncidentStatus" rx="1.2267" ry="1.2267" style="stroke:#181818;stroke-width:0.2453385672227674;" width="48.0864" x="455.8391" y="542.9342"/><ellipse cx="462.7085" cy="550.2944" fill="#EB937F" rx="4.9068" ry="4.9068" style="stroke:#181818;stroke-width:0.4906771344455348;"/><path d="M462.6472,550.8004 L462.6472,551.6668 L464.1499,551.6668 L464.1499,551.3448 Q464.1499,551.1378 464.2266,551.0458 Q464.3109,550.9538 464.4412,550.9538 Q464.5716,550.9538 464.6559,551.0458 Q464.7402,551.1378 464.7402,551.3448 L464.7402,552.2571 L461.9649,552.2571 Q461.7502,552.2571 461.6582,552.1804 Q461.5662,552.0961 461.5662,551.9581 Q461.5662,551.8278 461.6582,551.7511 Q461.7502,551.6668 461.9649,551.6668 L462.0569,551.6668 L462.0569,549.3591 L461.9649,549.3591 Q461.7502,549.3591 461.6582,549.2824 Q461.5662,549.198 461.5662,549.0677 Q461.5662,548.9297 461.6582,548.853 Q461.7502,548.7687 461.9649,548.7687 L464.6099,548.7687 L464.6099,549.6657 Q464.6099,549.8804 464.5256,549.9724 Q464.4489,550.0567 464.3109,550.0567 Q464.1806,550.0567 464.0962,549.9724 Q464.0196,549.8804 464.0196,549.6657 L464.0196,549.3591 L462.6472,549.3591 L462.6472,550.2101 L463.1609,550.2101 Q463.1609,549.9801 463.2069,549.9187 Q463.2912,549.7731 463.4599,549.7731 Q463.5902,549.7731 463.6669,549.8651 Q463.7512,549.9571 463.7512,550.1717 L463.7512,550.8464 Q463.7512,551.0381 463.7052,551.1071 Q463.6132,551.2451 463.4599,551.2451 Q463.2912,551.2451 463.2069,551.0994 Q463.1609,551.0381 463.1609,550.8004 L462.6472,550.8004 Z " fill="#000000"/><text fill="#000000" font-family="sans-serif" font-size="5.3974" lengthAdjust="spacing" textLength="33.366" x="469.0873" y="552.5029">IncidentStatus</text><line style="stroke:#181818;stroke-width:0.2453385672227674;" x1="456.3297" x2="503.4347" y1="557.6546" y2="557.6546"/><text fill="#000000" font-family="sans-serif" font-size="5.3974" lengthAdjust="spacing" textLength="26.0059" x="458.7831" y="565.2203">REPORTED</text><text fill="#000000" font-family="sans-serif" font-size="5.3974" lengthAdjust="spacing" textLength="21.5898" x="458.7831" y="572.0093">TRIAGED</text><text fill="#000000" font-family="sans-serif" font-size="5.3974" lengthAdjust="spacing" textLength="26.9872" x="458.7831" y="578.7982">RESOLVED</text></g><!--class AlertTemplate--><g id="elem_AlertTemplate"><rect codeLine="215" fill="#F1F1F1" height="63.305" id="AlertTemplate" rx="1.2267" ry="1.2267" style="stroke:#181818;stroke-width:0.2453385672227674;" width="69.1855" x="518.8911" y="530.9127"/><ellipse cx="535.6968" cy="538.2728" fill="#EB937F" rx="4.9068" ry="4.9068" style="stroke:#181818;stroke-width:0.4906771344455348;"/><path d="M535.6354,538.7788 L535.6354,539.6452 L537.1381,539.6452 L537.1381,539.3232 Q537.1381,539.1162 537.2148,539.0242 Q537.2991,538.9322 537.4295,538.9322 Q537.5598,538.9322 537.6441,539.0242 Q537.7285,539.1162 537.7285,539.3232 L537.7285,540.2355 L534.9531,540.2355 Q534.7384,540.2355 534.6464,540.1589 Q534.5544,540.0745 534.5544,539.9365 Q534.5544,539.8062 534.6464,539.7295 Q534.7384,539.6452 534.9531,539.6452 L535.0451,539.6452 L535.0451,537.3375 L534.9531,537.3375 Q534.7384,537.3375 534.6464,537.2608 Q534.5544,537.1765 534.5544,537.0461 Q534.5544,536.9081 534.6464,536.8315 Q534.7384,536.7471 534.9531,536.7471 L537.5981,536.7471 L537.5981,537.6441 Q537.5981,537.8588 537.5138,537.9508 Q537.4371,538.0351 537.2991,538.0351 Q537.1688,538.0351 537.0845,537.9508 Q537.0078,537.8588 537.0078,537.6441 L537.0078,537.3375 L535.6354,537.3375 L535.6354,538.1885 L536.1491,538.1885 Q536.1491,537.9585 536.1951,537.8971 Q536.2794,537.7515 536.4481,537.7515 Q536.5784,537.7515 536.6551,537.8435 Q536.7395,537.9355 536.7395,538.1501 L536.7395,538.8248 Q536.7395,539.0165 536.6934,539.0855 Q536.6014,539.2235 536.4481,539.2235 Q536.2794,539.2235 536.1951,539.0778 Q536.1491,539.0165 536.1491,538.7788 L535.6354,538.7788 Z " fill="#000000"/><text fill="#000000" font-family="sans-serif" font-size="5.3974" lengthAdjust="spacing" textLength="32.3847" x="544.2836" y="540.4813">AlertTemplate</text><line style="stroke:#181818;stroke-width:0.2453385672227674;" x1="519.3817" x2="587.5859" y1="545.633" y2="545.633"/><text fill="#000000" font-family="sans-serif" font-size="5.3974" lengthAdjust="spacing" textLength="34.8381" x="521.8351" y="553.1987">EVAC_NOTICE</text><text fill="#000000" font-family="sans-serif" font-size="5.3974" lengthAdjust="spacing" textLength="48.577" x="521.8351" y="559.9877">SHELTER_IN_PLACE</text><text fill="#000000" font-family="sans-serif" font-size="5.3974" lengthAdjust="spacing" textLength="29.4406" x="521.8351" y="566.7767">ALL_CLEAR</text><text fill="#000000" font-family="sans-serif" font-size="5.3974" lengthAdjust="spacing" textLength="53.4838" x="521.8351" y="573.5656">GENERAL_ADVISORY</text><line style="stroke:#181818;stroke-width:0.4906771344455348;" x1="519.3817" x2="587.5859" y1="576.7143" y2="576.7143"/><text fill="#000000" font-family="sans-serif" font-size="5.3974" lengthAdjust="spacing" textLength="50.5397" x="521.8351" y="584.28">-capMessage : String</text><text fill="#000000" font-family="sans-serif" font-size="5.3974" lengthAdjust="spacing" textLength="63.2974" x="521.8351" y="591.069">+getCapMessage() : String</text></g><!--class UserRole--><g id="elem_UserRole"><rect codeLine="224" fill="#F1F1F1" height="59.3796" id="UserRole" rx="1.2267" ry="1.2267" style="stroke:#181818;stroke-width:0.2453385672227674;" width="83.4151" x="544.1609" y="274.0432"/><ellipse cx="573.1109" cy="281.4033" fill="#EB937F" rx="4.9068" ry="4.9068" style="stroke:#181818;stroke-width:0.4906771344455348;"/><path d="M573.0496,281.9093 L573.0496,282.7757 L574.5523,282.7757 L574.5523,282.4537 Q574.5523,282.2467 574.6289,282.1547 Q574.7133,282.0627 574.8436,282.0627 Q574.9739,282.0627 575.0583,282.1547 Q575.1426,282.2467 575.1426,282.4537 L575.1426,283.366 L572.3672,283.366 Q572.1525,283.366 572.0605,283.2894 Q571.9685,283.205 571.9685,283.067 Q571.9685,282.9367 572.0605,282.86 Q572.1525,282.7757 572.3672,282.7757 L572.4592,282.7757 L572.4592,280.468 L572.3672,280.468 Q572.1525,280.468 572.0605,280.3913 Q571.9685,280.307 571.9685,280.1766 Q571.9685,280.0386 572.0605,279.962 Q572.1525,279.8776 572.3672,279.8776 L575.0123,279.8776 L575.0123,280.7747 Q575.0123,280.9893 574.9279,281.0813 Q574.8513,281.1657 574.7133,281.1657 Q574.5829,281.1657 574.4986,281.0813 Q574.4219,280.9893 574.4219,280.7747 L574.4219,280.468 L573.0496,280.468 L573.0496,281.319 L573.5632,281.319 Q573.5632,281.089 573.6092,281.0277 Q573.6936,280.882 573.8622,280.882 Q573.9926,280.882 574.0692,280.974 Q574.1536,281.066 574.1536,281.2807 L574.1536,281.9553 Q574.1536,282.147 574.1076,282.216 Q574.0156,282.354 573.8622,282.354 Q573.6936,282.354 573.6092,282.2084 Q573.5632,282.147 573.5632,281.9093 L573.0496,281.9093 Z " fill="#000000"/><text fill="#000000" font-family="sans-serif" font-size="5.3974" lengthAdjust="spacing" textLength="21.5898" x="582.4338" y="283.6119">UserRole</text><line style="stroke:#181818;stroke-width:0.2453385672227674;" x1="544.6516" x2="627.0854" y1="288.7635" y2="288.7635"/><text fill="#000000" font-family="sans-serif" font-size="5.3974" lengthAdjust="spacing" textLength="18.1551" x="547.105" y="296.3292">CITIZEN</text><text fill="#000000" font-family="sans-serif" font-size="5.3974" lengthAdjust="spacing" textLength="30.9127" x="547.105" y="303.1182">DISPATCHER</text><text fill="#000000" font-family="sans-serif" font-size="5.3974" lengthAdjust="spacing" textLength="46.1237" x="547.105" y="309.9072">FIELD_RESPONDER</text><text fill="#000000" font-family="sans-serif" font-size="5.3974" lengthAdjust="spacing" textLength="77.527" x="547.105" y="316.6962">PUBLIC_INFORMATION_OFFICER</text><text fill="#000000" font-family="sans-serif" font-size="5.3974" lengthAdjust="spacing" textLength="40.7262" x="547.105" y="323.4851">ADMINISTRATOR</text><text fill="#000000" font-family="sans-serif" font-size="5.3974" lengthAdjust="spacing" textLength="22.0805" x="547.105" y="330.2741">AUDITOR</text></g><!--reverse link IncidentQueue to Incident--><g id="link_IncidentQueue_Incident"><path codeLine="234" d="M358.1943,125.6722 C358.1943,140.8734 358.1943,152.3651 358.1943,170.2306 " fill="none" id="IncidentQueue-backto-Incident" style="stroke:#181818;stroke-width:0.4906771344455348;"/><polygon fill="none" points="358.1943,119.7841,356.2316,122.7282,358.1943,125.6722,360.157,122.7282,358.1943,119.7841" style="stroke:#181818;stroke-width:0.4906771344455348;"/><text fill="#000000" font-family="sans-serif" font-size="5.8881" lengthAdjust="spacing" textLength="71.1482" x="358.685" y="149.8808">ordered by Severity.priority,</text><text fill="#000000" font-family="sans-serif" font-size="5.8881" lengthAdjust="spacing" textLength="63.2974" x="362.6104" y="157.2869">then victimCount (desc)</text><text fill="#000000" font-family="sans-serif" font-size="5.8881" lengthAdjust="spacing" textLength="3.4347" x="354.6388" y="129.8175">1</text><text fill="#000000" font-family="sans-serif" font-size="5.8881" lengthAdjust="spacing" textLength="8.8322" x="349.231" y="164.9104">0..*</text></g><!--reverse link Incident to AuditLog--><g id="link_Incident_AuditLog"><path codeLine="235" d="M236.9603,441.6924 C217.9956,464.0378 202.6251,482.6987 184.9853,504.9068 C178.4151,513.1796 171.5505,522.3454 165.3337,530.8734 " fill="none" id="Incident-backto-AuditLog" style="stroke:#181818;stroke-width:0.4906771344455348;"/><polygon fill="#181818" points="240.7704,437.2031,237.3689,438.1778,236.9603,441.6924,240.3618,440.7178,240.7704,437.2031" style="stroke:#181818;stroke-width:0.4906771344455348;"/><text fill="#000000" font-family="sans-serif" font-size="5.8881" lengthAdjust="spacing" textLength="3.4347" x="233.7986" y="447.3873">1</text><text fill="#000000" font-family="sans-serif" font-size="5.8881" lengthAdjust="spacing" textLength="3.4347" x="164.1235" y="525.7593">1</text></g><!--link Incident to Responder--><g id="link_Incident_Responder"><path codeLine="236" d="M232.4338,352.051 C184.2149,375.3189 131.7076,407.2964 93.7193,448.4789 C76.7076,466.9235 65.7364,489.2763 57.7187,511.1997 " fill="none" id="Incident-to-Responder" style="stroke:#181818;stroke-width:0.4906771344455348;"/><polygon fill="#181818" points="56.7076,513.9647,60.0676,510.4913,57.5502,511.6605,56.381,509.1431,56.7076,513.9647" style="stroke:#181818;stroke-width:0.4906771344455348;"/><text fill="#000000" font-family="sans-serif" font-size="5.8881" lengthAdjust="spacing" textLength="25.5152" x="131.7468" y="455.082">assigned</text><path d="M96.1727,459.3198 L96.1727,491.2138 L192.8361,491.2138 L192.8361,464.2266 L187.9293,459.3198 L96.1727,459.3198 " fill="#FEFFDD" style="stroke:#181818;stroke-width:0.2453385672227674;"/><path d="M187.9293,459.3198 L187.9293,464.2266 L192.8361,464.2266 L187.9293,459.3198 " fill="#FEFFDD" style="stroke:#181818;stroke-width:0.2453385672227674;"/><text fill="#000000" font-family="sans-serif" font-size="5.3974" lengthAdjust="spacing" textLength="82.4338" x="99.1168" y="467.3762">Responder.currentTaskingId : UUID</text><text fill="#000000" font-family="sans-serif" font-size="5.3974" lengthAdjust="spacing" textLength="65.7507" x="99.1168" y="474.1652">tracks this association by id</text><text fill="#000000" font-family="sans-serif" font-size="5.3974" lengthAdjust="spacing" textLength="74.5829" x="99.1168" y="480.9542">(not by object reference); a null</text><text fill="#000000" font-family="sans-serif" font-size="5.3974" lengthAdjust="spacing" textLength="86.3592" x="99.1168" y="487.7431">id means the Responder is available.</text><text fill="#000000" font-family="sans-serif" font-size="5.8881" lengthAdjust="spacing" textLength="9.8135" x="218.741" y="352.1286">0..1</text><text fill="#000000" font-family="sans-serif" font-size="5.8881" lengthAdjust="spacing" textLength="9.8135" x="47.5541" y="508.7125">0..8</text></g><!--link Incident to GpsCoordinate--><g id="link_Incident_GpsCoordinate"><path codeLine="243" d="M306.0255,437.3013 C296.7076,461.0648 288.5424,481.9007 280.6425,502.0578 " fill="none" id="Incident-to-GpsCoordinate" style="stroke:#181818;stroke-width:0.4906771344455348;"/><polygon fill="#181818" points="279.5682,504.7988,283.007,501.4034,280.4634,502.5146,279.3522,499.971,279.5682,504.7988" style="stroke:#181818;stroke-width:0.4906771344455348;"/><text fill="#000000" font-family="sans-serif" font-size="5.8881" lengthAdjust="spacing" textLength="2.4534" x="301.987" y="447.4883">*</text><text fill="#000000" font-family="sans-serif" font-size="5.8881" lengthAdjust="spacing" textLength="3.4347" x="277.4619" y="499.6195">1</text></g><!--link Incident to HazardType--><g id="link_Incident_HazardType"><path codeLine="244" d="M358.1943,437.3013 C358.1943,473.2581 358.1943,505.8391 358.1943,529.7301 " fill="none" id="Incident-to-HazardType" style="stroke:#181818;stroke-width:0.4906771344455348;"/><polygon fill="#181818" points="358.1943,532.6742,360.157,528.2581,358.1943,530.2208,356.2316,528.2581,358.1943,532.6742" style="stroke:#181818;stroke-width:0.4906771344455348;"/><text fill="#000000" font-family="sans-serif" font-size="5.8881" lengthAdjust="spacing" textLength="2.4534" x="355.7045" y="447.4883">*</text><text fill="#000000" font-family="sans-serif" font-size="5.8881" lengthAdjust="spacing" textLength="3.4347" x="354.5717" y="527.7571">1</text></g><!--link Incident to Severity--><g id="link_Incident_Severity"><path codeLine="245" d="M389.0922,437.3013 C397.2228,472.3356 404.594,504.0901 410.1338,527.9419 " fill="none" id="Incident-to-Severity" style="stroke:#181818;stroke-width:0.4906771344455348;"/><polygon fill="#181818" points="410.7998,530.8096,411.7125,526.064,410.2448,528.4198,407.8889,526.9521,410.7998,530.8096" style="stroke:#181818;stroke-width:0.4906771344455348;"/><text fill="#000000" font-family="sans-serif" font-size="5.8881" lengthAdjust="spacing" textLength="2.4534" x="387.5197" y="447.4883">*</text><text fill="#000000" font-family="sans-serif" font-size="5.8881" lengthAdjust="spacing" textLength="3.4347" x="406.3835" y="525.6886">1</text></g><!--link Incident to IncidentStatus--><g id="link_Incident_IncidentStatus"><path codeLine="246" d="M421.001,437.3013 C440.5839,478.7978 458.6408,517.0577 469.5534,540.1882 " fill="none" id="Incident-to-IncidentStatus" style="stroke:#181818;stroke-width:0.4906771344455348;"/><polygon fill="#181818" points="470.8096,542.8508,470.7004,538.0195,469.7628,540.632,467.1503,539.6944,470.8096,542.8508" style="stroke:#181818;stroke-width:0.4906771344455348;"/><text fill="#000000" font-family="sans-serif" font-size="5.8881" lengthAdjust="spacing" textLength="2.4534" x="420.3758" y="447.4883">*</text><text fill="#000000" font-family="sans-serif" font-size="5.8881" lengthAdjust="spacing" textLength="3.4347" x="465.5878" y="537.7528">1</text></g><!--link Incident to AlertTemplate--><g id="link_Incident_AlertTemplate"><path codeLine="247" d="M460.1914,437.316 C477.3111,459.8283 494.8479,483.0029 511.2856,504.9068 C517.581,513.2924 522.5986,520.0457 528.8302,528.4854 " fill="none" id="Incident-to-AlertTemplate" style="stroke:#181818;stroke-width:0.4906771344455348;"/><polygon fill="#181818" points="530.579,530.8538,529.5348,526.1353,529.1217,528.8801,526.3769,528.467,530.579,530.8538" style="stroke:#181818;stroke-width:0.4906771344455348;"/><text fill="#000000" font-family="sans-serif" font-size="5.8881" lengthAdjust="spacing" textLength="39.7448" x="499.5093" y="473.4824">recommended</text><text fill="#000000" font-family="sans-serif" font-size="5.8881" lengthAdjust="spacing" textLength="2.4534" x="460.4147" y="447.0745">*</text><text fill="#000000" font-family="sans-serif" font-size="5.8881" lengthAdjust="spacing" textLength="9.8135" x="517.7236" y="525.7376">0..1</text></g><!--link User to UserRole--><g id="link_User_UserRole"><path codeLine="248" d="M585.8685,116.3346 C585.8685,163.6752 585.8685,231.4769 585.8685,270.9617 " fill="none" id="User-to-UserRole" style="stroke:#181818;stroke-width:0.4906771344455348;"/><polygon fill="#181818" points="585.8685,273.9058,587.8312,269.4897,585.8685,271.4524,583.9058,269.4897,585.8685,273.9058" style="stroke:#181818;stroke-width:0.4906771344455348;"/><text fill="#000000" font-family="sans-serif" font-size="5.8881" lengthAdjust="spacing" textLength="2.4534" x="583.3212" y="126.4494">*</text><text fill="#000000" font-family="sans-serif" font-size="5.8881" lengthAdjust="spacing" textLength="3.4347" x="582.2352" y="268.7864">1</text></g><!--link FireEmergencyService to IPartnerAgency--><g id="link_FireEmergencyService_IPartnerAgency"><path codeLine="249" d="M973.5182,77.4387 C980.6575,90.3778 994.7448,114.3131 1010.3042,131.9921 C1063.3366,192.2473 1130.6858,245.0301 1172.3934,275.6337 " fill="none" id="FireEmergencyService-to-IPartnerAgency" style="stroke:#181818;stroke-width:0.4906771344455348;stroke-dasharray:7.0,7.0;"/><polygon fill="none" points="1179.5142,280.8587,1174.1351,273.26,1170.6517,278.0073,1179.5142,280.8587" style="stroke:#181818;stroke-width:0.4906771344455348;"/></g><!--link HospitalSystem to IPartnerAgency--><g id="link_HospitalSystem_IPartnerAgency"><path codeLine="250" d="M1047.3209,77.37 C1053.1845,90.0343 1064.5388,113.4151 1076.5456,131.9921 C1113.0128,188.42 1157.8712,242.3736 1185.4227,274.1646 " fill="none" id="HospitalSystem-to-IPartnerAgency" style="stroke:#181818;stroke-width:0.4906771344455348;stroke-dasharray:7.0,7.0;"/><polygon fill="none" points="1191.2071,280.8391,1187.6475,272.2365,1183.1979,276.0927,1191.2071,280.8391" style="stroke:#181818;stroke-width:0.4906771344455348;"/></g><!--link ElectricityUtility to IPartnerAgency--><g id="link_ElectricityUtility_IPartnerAgency"><path codeLine="251" d="M1112.4583,77.419 C1127.3111,111.4524 1175.805,222.6018 1197.6696,272.7048 " fill="none" id="ElectricityUtility-to-IPartnerAgency" style="stroke:#181818;stroke-width:0.4906771344455348;stroke-dasharray:7.0,7.0;"/><polygon fill="none" points="1201.2022,280.7998,1200.3679,271.5273,1194.9713,273.8824,1201.2022,280.7998" style="stroke:#181818;stroke-width:0.4906771344455348;"/></g><!--link TransportAuthority to IPartnerAgency--><g id="link_TransportAuthority_IPartnerAgency"><path codeLine="252" d="M1178.9352,77.419 C1183.7635,111.4524 1199.4501,221.9523 1206.5649,272.0553 " fill="none" id="TransportAuthority-to-IPartnerAgency" style="stroke:#181818;stroke-width:0.4906771344455348;stroke-dasharray:7.0,7.0;"/><polygon fill="none" points="1207.8067,280.7998,1209.4797,271.6414,1203.6501,272.4693,1207.8067,280.7998" style="stroke:#181818;stroke-width:0.4906771344455348;"/></g><!--link PoliceService to IPartnerAgency--><g id="link_PoliceService_IPartnerAgency"><path codeLine="253" d="M1243.9941,77.419 C1239.0186,111.4524 1222.8725,221.9575 1215.5467,272.0605 " fill="none" id="PoliceService-to-IPartnerAgency" style="stroke:#181818;stroke-width:0.4906771344455348;stroke-dasharray:7.0,7.0;"/><polygon fill="none" points="1214.2689,280.7998,1218.4598,272.4865,1212.6336,271.6346,1214.2689,280.7998" style="stroke:#181818;stroke-width:0.4906771344455348;"/></g><!--link WasteManagementService to IPartnerAgency--><g id="link_WasteManagementService_IPartnerAgency"><path codeLine="254" d="M1318.0079,77.419 C1301.8793,111.4524 1249.1504,222.7154 1225.4065,272.8185 " fill="none" id="WasteManagementService-to-IPartnerAgency" style="stroke:#181818;stroke-width:0.4906771344455348;stroke-dasharray:7.0,7.0;"/><polygon fill="none" points="1221.6241,280.7998,1228.0669,274.0793,1222.7461,271.5577,1221.6241,280.7998" style="stroke:#181818;stroke-width:0.4906771344455348;"/></g><!--link WaterUtility to IPartnerAgency--><g id="link_WaterUtility_IPartnerAgency"><path codeLine="255" d="M1394.0334,77.3454 C1389.6909,90.1766 1380.7704,113.9794 1368.9892,131.9921 C1330.0785,191.4917 1276.6489,244.0484 1242.8854,274.8875 " fill="none" id="WaterUtility-to-IPartnerAgency" style="stroke:#181818;stroke-width:0.4906771344455348;stroke-dasharray:7.0,7.0;"/><polygon fill="none" points="1236.3641,280.844,1244.8709,277.0613,1240.8999,272.7137,1236.3641,280.844" style="stroke:#181818;stroke-width:0.4906771344455348;"/></g><!--link EducationDepartment to IPartnerAgency--><g id="link_EducationDepartment_IPartnerAgency"><path codeLine="256" d="M1460.2601,77.3062 C1453.6899,90.3042 1440.4416,114.5339 1424.9264,131.9921 C1369.9411,193.8714 1298.2118,245.8383 1253.1971,275.9217 " fill="none" id="EducationDepartment-to-IPartnerAgency" style="stroke:#181818;stroke-width:0.4906771344455348;stroke-dasharray:7.0,7.0;"/><polygon fill="none" points="1245.8538,280.8292,1254.8329,278.3695,1251.5612,273.474,1245.8538,280.8292" style="stroke:#181818;stroke-width:0.4906771344455348;"/></g><!--SRC=[hLXjSzis4lxkNu79bqYnfRFJPffp4i_m9DhMd6ov59LUEpVZWKb8mfaa609qulJot-zPy4KaHRlfJVt10dSVx2uMYyLYNtxuw_uENhAfjnpD4caaZzWf2oAkDGibtsGyPYCMgfZBXCKg514BXU4oOWCHvkFWKpuECpssdE4OWYQBcV_w-FMRjypHMcWTYyImrv1npkyaJvYdxaHc5Bl8lyRu79oyVltsfpS_7TDaJ7VOLwNY4PIfX9cjO24td1afClPPcgqbtOj75eiOSZHJQoPui2qi7ZCVx3GJ6af51d4y2Tc359-j18tPtC3-L81SoDUYc2equvbWq6i_RykrZzCynb81965Pi9L612O7KZs8Z2INTejFEO_qOFYtBTVR2Rmn6B9KHJ9uF6Ko7Dq9dibams0NV0nbWraIo12VHymJEbL9A38xL7aMY2D8N6cH3LaE0rUhsPHPi3IFXIOCth477kKmvEu_C0aIBr8zKIeBPSADE6A-qCRB4q-aAZD322HHwpoAodcL73QWfJ0EnbgAADJ3CPkADSyZmnPMzawtr92Zy_LQ1fBsTQqovkIXD7ErWPn4i0Y35EAgvGtj5bHVF-S2cYtm4mqXZS1EcauKTkmBu2EMg9rji7aKS2t6fODhzzhToWIvJOIqRSKMLI6hakYnYg2scn1wc947e4iDaL0djNXdaSM65QiCLP1Jx4Bw5ZgOLXOIy-mU5WS8NNXDhe4sZ6zmEhInW6834HH_vVayq06FIFaNTlBc-FZLoSdnyO6-bqdAQRLwoqFrcU9h3H-91iS6isDC9kzo8sQ1IfRogs3DoM6nr-VO0CixUTsTlsFzyAJe7UQaWKdKqvmGPozbFpHDoNXoJyGVtnni4IzCnAcfZ_h1GP6LgbXYlnymzhistCZW6pkySlvrwxdBcyNrrFMMo64Ia0_iRGiqTS-TrTo_NReVNM_c_mhOKj0-Gis7UZY-SgUprHLcZcG829q_-jZohpmB_STKW7XPVn1BLr9s0ecyIVLS1L2EK3nbhGDARBWWo6HQifU6KWJH7sHWP3nHEPPW5qB4p1va4Jf48wdH569y6HS6O8cv1gTopz8IYebbVY7sN6hpliuuPmK_K75CHodquV48KW5q8gJfwfjWl3hdf_MH9_88_muhfOCdN7J4dl744Ulpmn7RyyAGL879DsBGut3BHeJ8JL8lS50l7i2QQf7WgEW1UPe-DiBCGgJiUhE9KhZGKlUyQlcbOejeR3lnTcktt5Qq4FzYvmyBwCO6OQOxjnGggW0XviUTToopY1BYU7MWM4OtL0f85H85P2ye25JjieKqjhmGi1Sp1QmJDOUw7skws649hdsgkpkhMqxTjfnQ0PfUtNIzMe6QRWrhjrRSfb-JHjpfEXxsJraHcAeGrDogRzsaLLo0hSmrkbei_TkLT-5U-xVdCs_fO_v4nPGIZShULrFjMRMt9lWtcLJa6Ikl1JbigIgYMoHsta1MgNEt0CiFHS5lHZhHKo7kzuWQkRmPSLAxbAOjwKwfIF2aE8XB6uKKMxiWQrcQYHYbHwzLRLcujWpTiDy1VNONwX2tEz1ExWcFHIi91tc6-iBudEwdpQo1FTobbzQifpF9DM2T8wnBQg-4IKTtIvxkuTTB6HPRuZoWHETtaHZyIV_OwgN7FLd9AbFxpasyqjJMKuaQz4vysbDU0xxliHRNx4byPjrKjpbHHCb1XCMfiAGT_W-zGmLvZsTGecPxmPCfwn2Quc58icays0CViGxqQTUiohdxRgavU-8hQIIvaDUmI9VqFWlWoZ2M2SwipK9_Aepg5u5r5k8qenTFcG4Ai3t_kmkcBw_0QhUOkaiVZSbKjMJX8COJ4_L0Uy7FMjUw4zZxzytdmTbPjwgSNT_E7N_chwOkP8KgfqZ_m4P_FnuVxzMVVSXz88bSN5_iopnvsokq3rj1HxWxfSb3KJCjKIMRFUfXQ-63lOb7R7_Qi6LDm5Dw-fR9vm_BbtcfmG9sPX2dKjHXzUqRNL_5srg1M3n8Ey7OU78NqLFlTUiDtB_N8mEC1WXpoG54IgaX43O8QsI95Y7CCxluAzr1mJ_BF4PgwG_vba63ZkeZrb9yn5fgKIPtbHQ8PrHMnzyl5LaFbUOI_SRgwrBFhTekTLfhxyCtZUWzhqWeKNIH2P5yJoxvFtTTKjjdpN63pMvuPXAHEHkHu4bFEts8roWUx4zMGJouJzHdh7ppFJK95SXMTi_TNj-9gqGQtJ3GA4pRbjT84QBdCXDkB38hQqazfO2oaZRvtTbPZRfKEfM6Hyj7RKIyptSZE2YJ0Kh2bP6sTRA7yV6yrXHtJcwsjdhSnznG1qGyQSOl7EglU8ACIxsHPt3OXoSDSSEyI1rJWIBNs0vX3VfsG4q3UDeO5LDxhxsJ4EBApTOmWZDED0hxJF18Qi7CLcgsYuAYByJIJ1bbx3lKDWjj9v53r5f-mVcoDoQrgN9i5mliWtDa6s9Gt-XYBXBnKhFhSs-qEFxHpWfPMXYdnv3MYJcKjrIqMWjKAf9H42awtUAB4OccjswgOEefus58lHlE4dnk8OWN0h0KpZHOIFc9-5nwJ-B1PBrFSpegQH6PsE3e2Tjkb7IJsjMMk6iw0b9aHRyhAR-0qo9Q8nF3bI2oOCkJZHWVK9-KjkC0epnkFBXi05-kF6ysSQvTZF5meH_NyVpBdrVEForjlbXGyRBq5nvrKowTtwuS7pjiXTMD5n8rN_o2_tNVvN9sSOcVYJVpeM1UzHb6QVdiQLK9rLkeSSwiWlORpQhnt9k5vxjabE_Dd0ixyjpbOluHmt9UwrrgfxaVdSdjzGAsqBAMb-xSTxrRtECtSyUIdFdyTZB7uZ76EyxrdFcjC_quMowyNslZSNrUTQgLgjolEUsAnPfJbMNMaWaSyfjxZT5qjhnn_Ccbwrdlk_Ffhlq5oitg7_FP13QUm_SeInRNjulpSoo0cCuKHSXiwNiETeQ-LzCPZP11NyBOP_uGNP4zkdehK_qyzg3zw7rnye8fI7XnF1w_Uh5huvqor0ssYtltk6l1LJjzz6yS2P6qca43wXSDQ_5MyYkIZD-wJx7ZGXyOez6P7RvzqNW6ukpPVf48Ywo3Cnd9v9w2eiACdtu7eZGExdMHSo171RBeRs4TCWH_G4S97qMz0TUjiSma4CDtTDRpA086JuaODqgH9NQ6aSJg4caSmzsYNfKhmihQjLSlfD5-wkNNpQjURgVvjOyfFDm-DwUiqLSyi6-dfipw7T9x_ut7_pth9lxE5TW7wRa5-s0z5s4Vh7qNzY6Uk0xxeOqRiTVsdakn3_S_]--></g></svg>